<svg xmlns="http://www.w3.org/2000/svg" width="150" height="50" viewBox="0,0,150,50"><path fill="#333" d="M49.68 15.89L49.63 15.85L49.71 15.93Q51.60 20.79 52.17 25.96L52.10 25.89L52.18 25.98Q55.90 21.85 61.80 17.02L61.70 16.91L61.69 16.91Q64.96 16.68 67.59 15.88L67.53 15.82L61.06 21.53L60.96 21.43Q57.58 24.41 54.73 27.27L54.70 27.24L54.79 27.33Q62.66 36.38 67.72 41.10L67.66 41.04L67.78 41.15Q64.65 40.20 62.33 40.05L62.37 40.08L62.26 39.97Q56.54 34.63 52.23 28.81L52.23 28.80L52.27 28.84Q52.33 35.41 50.46 40.74L50.43 40.71L50.50 40.78Q50.33 40.87 49.83 41.06L49.73 40.96L49.63 41.05L49.69 41.11Q49.61 41.26 47.06 42.18L47.05 42.16L46.97 42.08Q49.85 35.45 49.51 27.99L49.52 27.99L49.66 28.14Q49.30 20.77 45.76 14.26L45.70 14.20L46.18 14.41L46.63 14.75L46.79 14.88L46.65 14.74Q47.38 15.13 49.59 15.81ZM49.92 15.57L49.95 15.60L49.96 15.61Q47.55 14.91 44.92 13.39L44.93 13.40L44.93 13.40Q49.33 20.80 49.33 29.75L49.27 29.68L49.34 29.76Q49.37 36.80 46.40 42.85L46.37 42.82L48.27 41.82L48.32 41.88Q47.93 42.89 47.25 44.19L47.20 44.14L47.35 44.29Q49.57 43.47 51.52 43.05L51.48 43.01L51.63 42.94L51.59 42.90Q51.74 42.74 52.31 42.59L52.34 42.61L52.29 42.57Q53.92 36.63 54.04 31.83L54.04 31.83L54.07 31.86Q56.18 34.39 58.00 36.25L58.08 36.33L58.05 36.30Q59.25 37.43 62.26 40.40L62.27 40.40L62.20 40.33L62.34 40.47Q63.36 41.30 65.22 42.90L65.14 42.81L65.15 42.82Q69.00 43.52 72.47 45.23L72.39 45.16L72.48 45.25Q63.22 36.71 56.98 29.29L56.92 29.23L56.99 29.30Q61.29 24.92 70.05 16.32L70.15 16.42L70.19 16.46Q67.56 17.52 65.54 17.90L65.48 17.84L65.46 17.83Q66.80 16.95 69.12 14.94L69.07 14.89L69.06 14.87Q64.94 16.27 61.59 16.46L61.56 16.44L61.73 16.61Q58.62 18.63 53.75 23.32L53.88 23.45L53.78 23.35Q53.48 20.84 52.91 18.29L52.93 18.32L52.87 18.26Q51.61 18.02 50.62 17.68L50.76 17.82L50.72 17.77Q50.48 17.01 49.91 15.56Z"/><path fill="#222" d="M24.16 29.68L24.20 29.73L24.08 29.60Q24.06 33.85 23.34 38.00L23.47 38.14L23.49 38.15Q25.54 37.39 28.63 37.28L28.72 37.37L28.72 37.37Q30.10 37.61 31.16 36.60L31.08 36.51L31.22 36.65Q32.28 35.64 32.28 34.31L32.16 34.18L32.14 34.16Q32.22 33.94 32.18 33.68L32.20 33.70L32.09 33.58Q32.08 30.79 29.84 29.96L29.83 29.95L29.82 29.94Q28.98 29.56 28.30 29.64L28.21 29.55L28.37 29.71Q27.25 29.58 26.22 29.62L26.15 29.55L26.21 29.60Q25.06 29.56 24.03 29.56ZM22.81 19.13L22.81 19.12L22.85 19.17Q23.70 22.45 23.97 26.83L24.11 26.97L24.10 26.96Q25.45 26.98 28.12 27.02L28.10 27.00L28.08 26.98Q30.99 27.00 31.33 23.46L31.34 23.47L31.41 23.54Q31.66 21.66 30.25 20.82L30.14 20.70L30.17 20.74Q29.27 20.22 24.85 19.57L24.84 19.55L24.95 19.66Q23.73 19.36 22.81 19.13ZM19.33 42.18L19.25 42.10L19.19 42.04Q21.69 35.40 21.42 28.02L21.36 27.95L21.37 27.96Q21.14 20.73 18.21 14.26L18.28 14.33L18.16 14.21Q21.96 16.75 28.18 17.00L28.31 17.12L28.17 16.98Q34.52 17.36 34.86 20.25L34.83 20.22L34.79 20.17Q35.22 23.04 33.81 25.71L33.67 25.57L33.67 25.57Q32.97 27.11 31.37 27.80L31.48 27.91L31.46 27.89Q35.12 28.58 35.35 33.95L35.37 33.97L35.21 33.81Q35.29 34.92 35.22 36.33L35.30 36.41L35.31 36.42Q35.26 37.75 34.33 38.68L34.29 38.63L34.21 38.55Q33.38 39.59 32.04 39.74L32.02 39.72L32.08 39.78Q30.60 39.86 29.54 39.86L29.53 39.85L29.56 39.89Q23.76 39.79 19.23 42.08ZM31.96 42.32L31.99 42.35L31.95 42.31Q32.95 42.44 34.82 42.55L34.86 42.59L34.90 42.63Q36.25 42.61 37.35 41.73L37.40 41.79L37.27 41.66Q38.27 40.94 38.15 39.38L38.00 39.22L38.03 39.26Q38.06 38.41 37.34 34.94L37.23 34.84L37.22 34.82Q36.65 31.70 34.78 30.22L34.65 30.08L34.33 29.35L34.37 29.39Q35.93 27.87 36.50 24.10L36.57 24.17L36.54 24.13Q36.75 23.05 36.68 21.64L36.54 21.51L36.55 21.52Q36.51 20.22 35.40 19.38L35.55 19.52L35.51 19.48Q35.22 19.31 35.10 19.27L34.93 19.10L35.00 19.17Q34.70 18.60 33.86 17.80L33.90 17.84L33.94 17.88Q32.45 16.84 28.22 16.65L28.20 16.63L28.16 16.59Q21.54 16.34 17.55 13.44L17.54 13.43L17.48 13.38Q20.88 20.51 21.19 28.05L21.10 27.96L21.23 28.09Q21.49 35.84 18.67 42.77L18.70 42.80L20.68 41.78L20.76 41.85Q20.31 42.93 19.81 44.07L19.91 44.16L19.78 44.04Q24.14 42.23 29.17 42.23L29.15 42.21L29.08 42.15Q30.64 42.30 32.09 42.45ZM29.94 31.89L29.83 31.78L29.97 31.92Q30.59 31.74 31.51 32.20L31.57 32.26L31.63 32.32Q31.61 32.53 31.77 33.60L31.72 33.55L31.79 33.62Q31.98 34.99 31.04 36.04L30.99 35.98L31.01 36.00Q30.04 37.01 28.63 36.90L28.68 36.95L27.27 37.13L27.19 37.06Q26.50 37.16 25.77 37.28L25.79 37.30L25.81 37.31Q26.12 35.49 26.19 32.02L26.04 31.87L26.19 32.02Q26.85 31.95 28.10 31.91L28.01 31.82L27.96 31.77Q29.26 31.78 29.87 31.82ZM28.90 22.28L28.92 22.31L29.20 22.20L29.26 22.27Q29.44 22.21 29.63 22.25L29.62 22.24L29.97 22.21L30.36 22.41L31.04 22.55L30.96 22.48Q31.10 22.77 31.10 23.07L31.17 23.15L31.16 23.66L31.13 23.64Q31.02 24.79 30.15 25.72L30.17 25.75L30.22 25.79Q29.31 26.69 28.10 26.69L28.05 26.65L28.02 26.62Q27.15 26.78 27.15 26.78L27.10 26.72L27.10 26.73Q25.81 26.73 26.15 26.73L26.17 26.75L26.10 26.68Q26.13 25.22 25.82 22.17L25.78 22.13L25.81 22.16Q27.32 22.22 28.84 22.22Z"/><path d="M2 39 C77 32,61 28,130 45" stroke="#333" fill="none"/><path d="M16 38 C83 6,72 37,137 16" stroke="#333" fill="none"/><path fill="#444" d="M77.87 14.40L77.79 14.32L77.84 14.36Q81.54 16.80 86.30 17.03L86.35 17.09L86.36 17.10Q91.04 17.32 95.30 15.57L95.29 15.56L95.27 15.54Q94.90 15.96 94.13 18.74L94.20 18.81L94.22 18.83Q91.40 19.78 88.43 19.93L88.55 20.05L88.50 20.00Q85.60 20.22 82.71 19.50L82.59 19.38L82.67 19.46Q83.33 23.05 83.52 26.70L83.63 26.81L83.62 26.81Q85.50 26.90 87.10 26.86L87.10 26.86L87.05 26.81Q88.39 26.93 90.79 26.82L90.71 26.74L90.71 26.74Q90.66 27.37 90.66 28.06L90.70 28.10L90.81 29.54L90.66 29.39Q88.38 29.51 83.58 29.58L83.43 29.43L83.56 29.56Q83.57 33.68 83.00 37.68L82.94 37.62L82.97 37.65Q85.64 37.05 88.38 37.16L88.24 37.02L88.25 37.03Q91.04 37.19 93.63 38.03L93.54 37.95L93.65 38.05Q93.72 38.85 93.98 39.61L94.02 39.65L94.40 41.09L94.43 41.12Q91.16 39.76 87.74 39.76L87.81 39.83L87.70 39.72Q82.83 39.72 78.56 41.96L78.69 42.09L78.75 42.15Q80.98 35.25 80.72 28.13L80.74 28.15L80.71 28.13Q80.35 20.87 77.69 14.21ZM78.13 42.75L78.18 42.80L78.25 42.87Q79.48 42.12 80.25 41.78L80.12 41.65L80.17 41.70Q79.89 42.38 79.32 43.90L79.40 43.98L79.35 43.93Q83.87 41.94 88.93 42.21L89.03 42.31L88.98 42.26Q94.27 42.67 98.27 45.37L98.26 45.37L98.11 45.21Q97.04 42.77 96.35 40.83L96.36 40.84L96.34 40.82Q95.25 40.11 94.26 39.77L94.33 39.84L94.41 39.92Q93.97 38.49 93.82 37.69L93.74 37.61L93.84 37.71Q90.67 36.63 87.51 36.63L87.47 36.60L87.56 36.69Q86.33 36.60 85.19 36.71L85.28 36.81L85.21 36.73Q85.49 35.64 85.53 34.42L85.44 34.34L85.60 31.90L85.58 31.89Q87.33 31.73 89.12 31.77L89.14 31.80L89.12 31.77Q90.92 31.78 92.71 31.93L92.65 31.87L92.72 31.95Q92.63 30.98 92.63 30.03L92.72 30.12L92.58 28.08L91.77 28.14L91.91 28.28Q91.35 28.22 90.89 28.22L90.97 28.29L90.99 28.32Q90.96 27.59 91.11 26.30L91.06 26.25L91.14 26.33Q89.45 26.47 88.27 26.50L88.29 26.53L88.27 26.51Q87.38 26.57 85.56 26.50L85.68 26.62L85.55 26.49Q85.55 25.16 85.36 22.34L85.30 22.28L85.37 22.35Q86.34 22.40 87.33 22.40L87.34 22.42L87.34 22.42Q92.09 22.45 95.78 20.54L95.77 20.53L95.80 20.56Q96.35 18.18 97.23 15.97L97.21 15.96L97.20 15.95Q95.79 16.71 94.96 17.05L94.94 17.03L95.07 17.17Q95.26 16.29 95.72 14.73L95.70 14.71L95.71 14.72Q91.05 16.83 86.17 16.53L86.27 16.62L86.21 16.57Q81.00 16.35 77.16 13.49L77.23 13.56L77.04 13.38Q79.95 20.36 80.25 27.97L80.35 28.07L80.35 28.07Q80.57 35.90 78.06 42.68Z"/><path fill="#444" d="M107.36 14.29L107.36 14.29L107.41 14.34Q111.26 16.93 116.02 17.16L115.90 17.04L115.98 17.12Q120.60 17.28 124.86 15.53L124.74 15.40L124.75 15.41Q124.66 16.13 123.90 18.91L123.91 18.92L123.75 18.76Q121.12 19.90 118.16 20.05L118.09 19.99L118.15 20.05Q115.07 20.09 112.17 19.36L112.28 19.47L112.21 19.40Q113.01 23.14 113.20 26.79L113.22 26.80L113.14 26.73Q115.16 26.96 116.76 26.92L116.65 26.81L116.78 26.94Q117.90 26.84 120.30 26.73L120.39 26.82L120.40 26.83Q120.31 27.42 120.31 28.10L120.40 28.20L120.22 29.36L120.23 29.36Q117.93 29.46 113.13 29.53L113.19 29.59L113.06 29.47Q113.13 33.65 112.56 37.64L112.64 37.72L112.65 37.74Q115.10 36.91 117.84 37.02L117.83 37.01L117.88 37.06Q120.69 37.25 123.28 38.09L123.23 38.04L123.19 37.99Q123.20 38.72 123.46 39.48L123.49 39.51L124.07 41.16L123.94 41.02Q120.88 39.87 117.45 39.87L117.42 39.84L117.31 39.73Q112.51 39.80 108.25 42.05L108.26 42.07L108.20 42.00Q110.64 35.30 110.37 28.18L110.34 28.15L110.35 28.16Q110.05 20.97 107.38 14.31ZM107.76 42.78L107.82 42.84L107.83 42.85Q109.11 42.15 109.87 41.81L109.69 41.63L109.79 41.73Q109.59 42.48 109.02 44.00L109.01 43.99L108.92 43.90Q113.61 42.08 118.67 42.34L118.69 42.36L118.51 42.18Q123.81 42.61 127.81 45.32L127.78 45.29L127.85 45.36Q126.64 42.77 125.95 40.83L125.95 40.83L125.91 40.79Q124.85 40.11 123.86 39.77L123.84 39.75L124.03 39.94Q123.63 38.55 123.48 37.75L123.35 37.62L123.40 37.67Q120.28 36.64 117.12 36.64L117.20 36.73L117.07 36.59Q116.00 36.67 114.86 36.78L114.83 36.76L114.95 36.87Q114.94 35.49 114.98 34.27L115.07 34.37L115.12 31.83L115.04 31.75Q116.85 31.65 118.64 31.69L118.75 31.80L118.65 31.70Q120.57 31.83 122.36 31.99L122.32 31.94L122.31 31.94Q122.24 30.99 122.24 30.04L122.20 30.00L122.19 28.09L121.37 28.14L121.55 28.32Q120.98 28.24 120.52 28.24L120.68 28.41L120.52 28.24Q120.57 27.61 120.73 26.32L120.72 26.31L120.70 26.29Q119.12 26.54 117.94 26.58L117.89 26.53L117.89 26.53Q117.00 26.58 115.17 26.51L115.15 26.49L115.24 26.58Q115.16 25.17 114.97 22.35L115.01 22.39L114.94 22.32Q115.94 22.41 116.93 22.41L116.97 22.44L116.88 22.35Q121.68 22.43 125.37 20.53L125.32 20.48L125.41 20.57Q125.91 18.14 126.79 15.93L126.72 15.87L126.82 15.96Q125.55 16.86 124.71 17.21L124.62 17.11L124.65 17.14Q124.95 16.38 125.40 14.82L125.32 14.73L125.34 14.75Q120.82 17.01 115.95 16.71L115.88 16.64L115.97 16.72Q110.53 16.27 106.68 13.42L106.73 13.47L106.75 13.48Q109.66 20.47 109.97 28.08L110.02 28.14L109.85 27.97Q110.22 35.95 107.71 42.73Z"/></svg>