<svg xmlns="http://www.w3.org/2000/svg" width="150" height="50" viewBox="0,0,150,50"><path fill="#333" d="M37.26 22.99L37.30 23.03L37.30 23.03Q35.41 25.67 32.74 31.30L32.85 31.41L30.83 35.64L30.84 35.64Q29.92 37.50 28.58 39.74L28.67 39.83L28.72 39.88Q29.02 39.73 27.35 39.77L27.46 39.88L27.43 39.84Q27.43 39.85 26.18 39.85L26.18 39.85L26.18 39.86Q25.41 38.32 22.48 31.17L22.61 31.30L22.43 31.12Q20.44 25.92 18.34 22.92L18.34 22.92L18.21 22.79Q19.07 25.97 19.07 29.13L18.94 28.99L19.11 29.17Q19.03 35.59 16.06 41.15L16.12 41.21L16.09 41.19Q14.69 41.46 12.33 42.18L12.28 42.13L12.38 42.23Q15.99 36.48 15.99 29.25L16.04 29.30L16.08 29.34Q16.02 20.33 10.62 13.36L10.70 13.45L10.67 13.42Q12.22 14.05 14.58 14.74L14.54 14.70L14.70 14.86Q21.75 21.60 27.84 34.93L27.85 34.93L27.87 34.96Q31.32 27.90 33.53 24.40L33.56 24.43L33.57 24.44Q37.07 18.57 41.03 15.11L41.08 15.16L41.09 15.17Q42.29 14.88 44.65 14.12L44.55 14.03L44.61 14.09Q39.65 20.73 39.65 29.34L39.59 29.28L39.59 29.28Q39.64 35.99 43.06 41.51L43.14 41.59L43.01 41.45Q41.80 41.27 39.06 40.66L39.02 40.63L38.99 40.60Q36.64 35.80 36.64 29.83L36.65 29.84L36.63 29.82Q36.56 26.33 37.25 22.98ZM38.76 40.94L38.77 40.95L38.91 41.08Q39.40 41.01 40.85 41.28L40.99 41.42L40.95 41.37Q41.39 42.12 42.34 43.61L42.31 43.57L42.44 43.70Q44.40 43.95 47.87 45.17L47.95 45.25L47.90 45.20Q41.59 38.81 41.59 28.99L41.68 29.09L41.68 29.09Q41.73 21.40 46.10 15.28L46.00 15.17L43.83 15.89L43.83 15.90Q44.77 14.28 45.42 13.41L45.54 13.53L45.45 13.44Q43.65 14.15 41.02 14.68L41.01 14.67L41.08 14.75Q34.33 20.86 28.28 33.46L28.17 33.35L28.27 33.45Q22.94 22.34 17.99 17.09L17.98 17.07L18.00 17.09Q17.63 17.03 17.06 16.91L17.14 16.99L15.87 15.65L15.93 15.71Q15.33 15.03 14.64 14.42L14.59 14.37L14.65 14.43Q11.55 13.38 9.76 12.66L9.74 12.64L9.88 12.78Q15.87 19.99 15.87 29.40L15.84 29.36L15.69 29.21Q15.80 36.93 11.65 42.80L11.70 42.85L11.66 42.81Q12.22 42.45 13.51 42.03L13.70 42.22L13.70 42.22Q13.46 42.36 12.06 44.46L12.09 44.49L12.18 44.58Q13.79 43.91 17.30 43.15L17.29 43.14L17.44 43.29Q21.11 36.19 20.92 28.43L20.91 28.42L20.91 28.41Q22.41 32.39 25.87 40.27L25.85 40.25L25.91 40.30Q26.21 40.30 26.44 40.30L26.41 40.28L26.90 40.24L26.91 40.24Q27.25 40.81 28.05 42.11L28.18 42.23L28.23 42.29Q29.86 42.28 29.86 42.28L29.70 42.11L29.82 42.24Q30.87 42.26 31.51 42.33L31.34 42.16L31.40 42.22Q33.06 38.28 36.41 30.28L36.42 30.29L36.26 30.13Q36.25 35.69 38.84 41.02Z"/><path fill="#333" d="M78.84 14.26L78.93 14.35L78.96 14.38Q81.35 15.93 83.10 16.35L83.12 16.37L83.13 16.38Q84.58 23.00 84.58 29.59L84.58 29.59L84.57 29.59Q84.59 33.60 84.06 37.60L84.00 37.54L84.01 37.55Q86.15 36.99 88.62 37.06L88.63 37.07L88.74 37.18Q91.05 37.09 93.18 37.82L93.21 37.84L93.27 37.90Q93.57 39.42 94.03 40.98L94.07 41.02L93.96 40.92Q90.56 39.53 86.71 39.79L86.78 39.86L86.81 39.89Q83.01 40.20 79.77 42.11L79.77 42.10L79.79 42.12Q81.88 35.16 81.62 28.15L81.57 28.10L81.54 28.07Q81.39 21.11 78.95 14.37ZM79.28 42.87L79.17 42.76L79.27 42.86Q79.97 42.49 81.34 41.77L81.30 41.73L81.29 41.72Q81.05 42.40 80.52 43.88L80.56 43.92L80.54 43.90Q84.04 42.19 87.89 42.19L87.85 42.15L87.94 42.24Q93.61 42.28 97.72 45.32L97.64 45.24L97.70 45.30Q96.97 43.74 95.95 40.77L96.00 40.83L95.97 40.79Q94.87 40.11 93.99 39.73L93.94 39.67L93.98 39.72Q93.93 39.10 93.63 37.69L93.56 37.62L93.54 37.60Q91.05 36.82 88.04 36.82L87.91 36.69L87.92 36.70Q87.12 36.66 86.32 36.70L86.40 36.78L86.46 36.85Q86.68 31.88 86.60 27.77L86.62 27.78L86.67 27.84Q86.40 23.53 86.06 18.54L86.07 18.56L86.21 18.70Q84.78 18.56 83.98 18.37L83.84 18.23L83.89 18.28Q83.89 17.67 83.66 16.26L83.49 16.09L83.57 16.17Q80.45 15.34 78.21 13.40L78.24 13.43L78.31 13.50Q80.93 20.46 81.19 27.96L81.31 28.07L81.36 28.13Q81.55 35.59 79.15 42.74Z"/><path fill="#111" d="M49.31 14.33L49.25 14.27L49.33 14.35Q51.76 15.94 53.51 16.36L53.68 16.52L53.56 16.41Q54.85 22.88 54.85 29.46L54.83 29.44L55.00 29.62Q54.88 33.49 54.35 37.49L54.47 37.61L54.32 37.46Q56.59 37.03 59.06 37.10L59.12 37.16L59.04 37.08Q61.56 37.20 63.69 37.92L63.70 37.93L63.66 37.89Q63.94 39.39 64.39 40.95L64.41 40.96L64.52 41.08Q61.07 39.64 57.23 39.91L57.06 39.75L57.21 39.90Q53.26 40.06 50.03 41.96L50.14 42.08L50.12 42.05Q52.29 35.17 52.03 28.16L52.02 28.16L52.00 28.13Q51.73 21.05 49.29 14.31ZM49.50 42.69L49.51 42.70L49.51 42.70Q50.29 42.41 51.66 41.69L51.69 41.72L51.66 41.69Q51.49 42.44 50.96 43.92L51.01 43.98L50.96 43.92Q54.53 42.27 58.37 42.27L58.25 42.16L58.25 42.15Q63.95 42.21 68.06 45.26L68.08 45.28L68.15 45.35Q67.46 43.82 66.43 40.85L66.29 40.72L66.36 40.79Q65.30 40.14 64.42 39.76L64.49 39.83L64.42 39.76Q64.29 39.06 63.99 37.65L63.96 37.62L63.90 37.56Q61.43 36.81 58.43 36.81L58.38 36.76L58.35 36.73Q57.61 36.75 56.81 36.79L56.82 36.80L56.82 36.80Q57.13 31.94 57.06 27.83L56.91 27.68L56.91 27.67Q56.90 23.63 56.55 18.64L56.55 18.63L56.64 18.73Q55.12 18.51 54.32 18.31L54.25 18.24L54.25 18.24Q54.19 17.57 53.96 16.16L54.00 16.21L53.94 16.14Q50.89 15.38 48.65 13.44L48.61 13.40L48.69 13.48Q51.34 20.47 51.61 27.97L51.62 27.99L51.78 28.14Q51.95 35.59 49.56 42.75Z"/><path d="M12 15 C70 17,68 41,132 3" stroke="#999" fill="none"/><path d="M6 2 C59 35,60 40,137 40" stroke="#888" fill="none"/><path fill="#333" d="M117.49 29.95L117.38 29.85L117.53 29.99Q114.94 29.80 113.61 31.02L113.50 30.91L113.55 30.96Q112.27 32.23 112.57 34.74L112.45 34.62L112.56 34.73Q112.78 37.15 113.99 38.41L114.16 38.57L114.07 38.49Q115.22 39.90 117.35 39.83L117.20 39.67L117.21 39.69Q117.74 39.64 117.93 39.64L117.93 39.65L118.05 39.77Q121.54 39.11 121.66 34.50L121.62 34.47L121.76 34.60Q121.81 32.22 121.12 31.42L120.98 31.27L121.00 31.29Q120.01 30.07 117.46 29.92ZM120.82 41.70L120.84 41.72L120.80 41.68Q119.39 42.17 117.83 42.09L117.93 42.19L117.81 42.07Q114.00 42.30 112.70 39.71L112.74 39.74L112.86 39.86Q112.54 45.07 111.21 49.33L111.25 49.37L111.24 49.36Q109.53 49.94 107.89 50.66L107.79 50.55L107.85 50.62Q110.30 44.54 110.03 37.57L110.11 37.64L110.00 37.54Q109.86 30.81 106.96 24.75L106.97 24.77L106.92 24.72Q108.92 25.95 110.63 26.41L110.65 26.42L111.19 27.91L111.03 27.76Q111.25 28.20 111.51 29.31L111.47 29.26L111.43 29.22Q112.57 27.28 116.15 27.09L116.03 26.97L116.06 27.00Q117.02 27.05 117.89 27.05L117.96 27.11L118.40 27.06L118.45 27.11Q118.50 27.04 118.69 27.08L118.72 27.11L118.90 26.98L118.94 27.02Q121.15 27.45 121.87 27.67L121.74 27.54L121.75 27.55Q123.35 28.12 124.23 29.07L124.07 28.92L124.16 29.01Q124.99 30.18 124.95 31.59L124.99 31.63L124.86 31.50Q125.02 34.51 124.22 37.18L124.16 37.12L124.07 37.03Q123.15 40.64 120.79 41.67ZM125.09 42.31L125.01 42.19L125.07 42.26Q126.20 40.30 126.50 36.19L126.33 36.02L126.37 36.06Q126.53 34.31 126.53 33.05L126.49 33.01L126.65 33.18Q126.57 31.58 125.81 30.17L125.94 30.30L125.80 30.15Q125.34 29.66 124.85 29.28L124.92 29.35L124.67 28.98L124.59 28.79L124.60 28.68L124.61 28.69Q122.88 26.66 118.54 26.66L118.57 26.69L117.94 26.67L117.79 26.52Q113.25 26.62 111.61 28.22L111.54 28.15L111.51 28.12Q111.48 27.75 111.33 27.25L111.20 27.13L110.94 26.07L110.99 26.11Q108.43 25.42 106.22 23.93L106.36 24.07L106.23 23.95Q109.54 30.31 109.85 37.54L109.84 37.53L109.93 37.62Q110.16 44.82 107.30 51.29L107.23 51.22L109.21 50.34L109.34 50.47Q108.90 51.02 108.22 52.58L108.28 52.64L108.24 52.60Q111.05 51.64 113.37 51.30L113.28 51.21L113.35 51.28Q114.47 46.46 114.62 42.73L114.67 42.78L114.59 42.70Q116.00 44.18 119.62 44.41L119.66 44.46L119.54 44.34Q123.50 44.61 124.95 42.17L125.06 42.28ZM119.37 32.18L119.35 32.16L119.29 32.10Q120.00 32.08 121.10 32.42L121.15 32.48L121.03 32.35Q121.27 33.31 121.23 34.49L121.33 34.59L121.35 34.61Q121.30 35.48 121.11 36.12L121.24 36.25L121.20 36.21Q120.43 39.06 117.91 39.36L117.95 39.40L118.09 39.42L118.11 39.44Q117.94 39.35 117.83 39.39L117.85 39.42L117.21 39.30L117.31 39.41Q116.10 39.37 115.11 38.88L115.10 38.87L114.82 36.87L114.74 36.79Q114.70 34.59 116.00 33.56L115.90 33.47L115.87 33.43Q116.97 32.44 119.36 32.17Z"/></svg>