<svg xmlns="http://www.w3.org/2000/svg" width="150" height="50" viewBox="0,0,150,50"><path fill="#111" d="M101.87 28.85L101.99 28.97L102.01 28.99Q99.38 28.90 98.35 30.08L98.30 30.03L98.46 30.20Q97.33 31.28 97.33 33.90L97.33 33.90L97.36 33.93Q97.41 39.08 102.02 38.89L101.89 38.77L101.97 38.84Q104.00 38.97 105.35 37.41L105.37 37.43L105.46 37.52Q106.65 35.79 106.42 33.74L106.46 33.77L106.48 33.79Q106.42 31.18 105.54 30.16L105.73 30.34L105.60 30.22Q104.17 28.94 101.96 28.94ZM106.91 38.64L106.92 38.65L106.87 38.61Q105.79 41.18 101.11 41.18L101.08 41.16L99.72 41.24L99.65 41.17Q97.37 41.25 96.27 40.11L96.17 40.01L96.24 40.08Q95.08 38.92 94.81 36.52L94.84 36.54L94.98 36.69Q94.72 35.10 94.65 33.31L94.66 33.32L94.72 33.38Q94.63 32.35 94.48 30.40L94.44 30.36L94.47 30.39Q94.43 26.16 99.61 26.16L99.52 26.07L101.20 26.19L101.02 26.02Q104.01 26.11 106.10 27.41L106.17 27.48L106.18 27.49Q106.89 27.89 107.39 28.58L107.31 28.50L107.36 28.55Q107.72 27.84 108.25 26.21L108.28 26.24L108.24 26.19Q109.50 26.04 111.82 25.43L111.76 25.37L111.75 25.36Q109.12 29.55 109.12 34.80L109.11 34.79L109.16 34.84Q109.14 38.55 110.51 41.64L110.51 41.63L110.61 41.73Q109.29 41.26 107.39 41.03L107.50 41.14L107.43 41.07Q107.20 40.19 106.89 38.63ZM110.36 43.99L110.25 43.89L112.46 44.46L112.51 44.51Q113.74 44.83 114.73 45.28L114.61 45.16L114.70 45.25Q110.96 40.83 110.96 34.74L110.99 34.76L111.00 34.78Q111.02 30.27 113.15 26.46L113.11 26.42L113.22 26.53Q112.51 26.70 111.18 27.08L111.29 27.19L111.20 27.09Q111.47 26.26 112.34 24.74L112.51 24.90L112.37 24.77Q111.84 25.00 107.84 25.83L107.83 25.82L107.36 27.75L107.29 27.68Q105.58 26.01 101.16 25.78L101.14 25.76L101.10 25.71Q99.88 25.64 97.64 25.79L97.67 25.82L97.70 25.86Q94.03 26.22 94.14 30.26L94.05 30.17L94.20 30.32Q94.31 33.62 94.88 38.07L94.92 38.11L94.82 38.43L94.81 38.43Q94.97 39.31 95.77 40.41L95.71 40.35L95.78 40.42Q95.88 40.52 96.07 40.63L96.04 40.60L96.22 40.78Q96.31 41.10 96.69 41.67L96.77 41.75L96.85 41.83Q98.26 43.36 101.65 43.55L101.51 43.41L101.52 43.42Q103.22 43.59 103.37 43.59L103.36 43.59L104.87 43.53L104.85 43.52Q108.09 43.55 109.30 41.99L109.31 42.00L109.25 41.94Q109.60 42.55 110.21 43.85ZM103.76 31.19L103.81 31.24L103.81 31.24Q105.09 31.19 105.93 31.65L105.96 31.68L105.84 31.56Q106.20 32.42 106.20 33.86L106.12 33.78L106.19 33.85Q106.48 35.85 105.20 37.28L105.11 37.19L105.06 37.13Q103.79 38.57 101.89 38.38L101.98 38.47L101.92 38.41Q100.42 38.36 99.39 37.94L99.52 38.06L99.48 38.03Q99.32 37.22 99.32 36.01L99.22 35.90L99.33 36.01Q99.45 32.48 102.08 31.53L102.03 31.48L101.93 31.38Q103.01 31.24 103.81 31.24Z"/><path fill="#444" d="M26.86 30.26L26.96 30.36L27.01 30.41Q27.03 29.94 26.99 29.52L27.03 29.55L27.12 29.65Q26.90 29.12 26.60 28.93L26.65 28.99L26.53 28.86Q25.91 28.40 25.04 28.55L24.99 28.50L24.96 28.48Q23.94 28.52 22.30 29.63L22.26 29.58L22.34 29.66Q20.92 30.56 20.92 31.74L20.84 31.66L20.89 31.72Q20.99 33.07 20.99 36.39L20.95 36.34L21.00 36.39Q20.79 38.77 20.94 40.79L21.00 40.85L21.03 40.88Q19.25 40.81 19.25 40.81L19.33 40.89L19.30 40.86Q18.40 40.91 17.67 40.98L17.52 40.83L17.59 40.91Q18.10 38.48 18.18 36.24L18.00 36.06L18.17 36.23Q18.21 31.47 17.56 30.18L17.69 30.30L17.56 30.18Q17.33 29.64 16.76 29.33L16.84 29.41L16.67 29.25Q15.94 28.63 14.38 28.51L14.38 28.52L14.35 28.49Q12.29 28.22 11.76 29.82L11.84 29.90L11.72 29.77Q11.67 30.37 11.78 30.87L11.79 30.88L11.81 30.90Q12.48 33.66 12.14 36.44L12.12 36.42L12.10 36.40Q11.81 39.23 10.40 41.67L10.32 41.58L10.31 41.58Q9.28 41.73 7.19 42.15L7.36 42.32L7.24 42.20Q9.71 38.92 9.71 34.61L9.79 34.69L9.78 34.69Q9.81 28.85 5.77 24.63L5.72 24.58L5.81 24.67Q6.42 24.82 7.37 25.05L7.37 25.05L9.10 25.44L9.23 25.57Q9.73 26.23 10.61 27.90L10.48 27.78L10.57 27.87Q10.69 25.93 13.13 25.89L13.06 25.83L13.08 25.85Q13.31 25.89 14.30 25.96L14.34 26.00L14.30 25.96Q19.35 26.33 20.49 29.14L20.39 29.04L20.41 29.06Q22.14 26.41 27.16 25.88L27.02 25.74L27.03 25.75Q27.79 25.63 28.66 25.75L28.80 25.88L28.82 25.90Q30.94 26.00 30.79 27.56L30.74 27.51L30.85 27.62Q30.77 28.27 30.50 29.03L30.46 28.99L30.57 29.09Q29.06 32.01 29.29 35.55L29.20 35.45L29.19 35.45Q29.55 39.08 31.45 41.89L31.41 41.85L31.47 41.92Q29.74 41.51 27.91 41.28L27.83 41.21L27.79 41.16Q26.72 38.76 26.53 35.99L26.55 36.01L26.50 35.95Q26.23 33.02 26.88 30.28ZM27.57 41.55L27.75 41.73L27.75 41.73Q28.29 41.62 29.62 41.81L29.74 41.94L29.74 41.93Q30.33 42.71 31.47 44.12L31.48 44.13L31.43 44.08Q34.35 44.64 36.44 45.29L36.35 45.19L36.43 45.27Q31.33 41.27 31.06 34.76L31.16 34.86L31.15 34.86Q30.95 32.63 31.55 30.73L31.66 30.84L31.63 30.81Q31.78 29.85 31.78 29.12L31.92 29.27L31.85 29.19Q31.93 28.36 31.32 27.79L31.28 27.75L31.31 27.74L31.28 27.72Q31.31 27.17 31.23 26.68L31.19 26.63L31.19 26.64Q31.17 26.19 30.71 25.93L30.57 25.78L30.58 25.80Q29.92 25.32 29.04 25.29L29.01 25.25L29.02 25.27Q26.34 25.33 23.68 26.28L23.64 26.24L23.70 26.30Q21.71 26.98 20.53 28.39L20.36 28.21L20.47 28.32Q18.86 25.80 14.03 25.46L14.02 25.45L14.04 25.48Q13.29 25.37 12.87 25.37L12.86 25.36L12.87 25.37Q11.00 25.56 10.39 26.81L10.22 26.64L10.36 26.78Q10.01 26.24 9.33 25.18L9.34 25.19L9.38 25.23Q6.75 24.54 4.77 23.89L4.83 23.95L4.88 24.00Q9.57 28.43 9.57 34.71L9.56 34.70L9.52 34.66Q9.45 39.31 6.60 42.78L6.55 42.72L6.60 42.78Q7.17 42.74 7.66 42.66L7.62 42.62L8.63 42.49L8.63 42.49Q7.90 43.51 6.80 44.73L6.73 44.65L6.77 44.70Q8.30 44.28 11.42 43.67L11.58 43.83L11.55 43.80Q14.19 39.67 14.19 34.76L14.18 34.75L14.12 34.69Q14.12 33.89 14.05 33.05L14.16 33.17L14.17 33.18Q14.00 32.32 14.99 31.52L15.10 31.63L15.08 31.65L14.99 31.56Q15.49 31.00 16.67 30.88L16.86 31.07L16.78 30.99Q17.19 30.98 17.50 30.98L17.50 30.99L17.52 31.20L17.52 31.20Q17.92 34.04 17.81 36.40L17.80 36.39L17.71 36.30Q17.59 38.58 17.10 41.24L17.14 41.29L17.09 41.24Q18.10 41.22 18.10 41.22L18.09 41.21L18.22 41.34Q19.63 41.30 19.29 41.30L19.18 41.20L19.16 41.17Q19.23 41.74 19.19 42.20L19.33 42.33L19.31 42.31Q19.24 42.74 19.24 43.24L19.16 43.16L21.66 43.18L21.74 43.26Q22.97 43.24 24.23 43.31L24.10 43.18L24.13 43.22Q22.72 39.64 22.91 33.70L22.80 33.59L22.78 33.57Q22.90 32.54 24.08 31.78L24.05 31.75L23.99 31.69Q24.99 30.98 26.24 30.79L26.22 30.76L26.61 30.85L26.61 30.85Q26.10 32.69 26.10 34.67L26.22 34.80L26.06 34.64Q26.03 38.38 27.55 41.54ZM22.15 30.12L22.31 30.05L22.09 30.17L22.12 30.09Z"/><path fill="#333" d="M117.36 15.92L117.35 15.91L117.26 15.82Q119.20 20.73 119.77 25.91L119.69 25.83L119.86 26.00Q123.56 21.85 129.46 17.02L129.46 17.02L129.35 16.91Q132.48 16.54 135.11 15.74L135.14 15.77L128.68 21.49L128.68 21.50Q125.18 24.35 122.32 27.21L122.46 27.34L122.29 27.17Q130.41 36.48 135.48 41.20L135.44 41.16L135.36 41.08Q132.23 40.12 129.91 39.96L130.01 40.06L130.03 40.09Q124.14 34.58 119.84 28.76L119.83 28.75L119.96 28.88Q120.00 35.43 118.14 40.76L118.17 40.79L118.05 40.67Q117.97 40.86 117.48 41.05L117.44 41.01L117.36 41.12L117.41 41.17Q117.19 41.18 114.64 42.09L114.61 42.06L114.63 42.09Q117.54 35.48 117.20 28.02L117.30 28.12L117.15 27.97Q116.95 20.77 113.41 14.26L113.39 14.23L113.87 14.45L114.27 14.74L114.43 14.85L114.32 14.75Q115.08 15.16 117.28 15.85ZM117.58 15.57L117.63 15.62L117.60 15.59Q115.30 15.00 112.67 13.48L112.75 13.56L112.73 13.54Q116.99 20.80 116.99 29.75L116.94 29.71L116.91 29.67Q116.94 36.70 113.97 42.76L113.96 42.75L115.93 41.83L116.09 41.98Q115.61 42.91 114.93 44.21L114.94 44.22L114.93 44.22Q117.18 43.42 119.13 43.00L119.12 43.00L119.14 42.79L119.23 42.88Q119.42 42.77 119.99 42.62L119.98 42.60L120.02 42.65Q121.74 36.79 121.85 31.99L121.89 32.02L121.82 31.96Q123.91 34.46 125.74 36.33L125.71 36.31L125.65 36.24Q126.94 37.46 129.95 40.43L129.90 40.38L129.97 40.45L130.03 40.51Q130.91 41.20 132.78 42.80L132.72 42.74L132.86 42.88Q136.60 43.46 140.07 45.18L140.11 45.22L140.12 45.23Q130.91 36.74 124.67 29.32L124.69 29.34L124.60 29.25Q128.99 24.97 137.75 16.36L137.77 16.39L137.80 16.41Q135.30 17.61 133.29 17.99L133.25 17.96L133.28 17.98Q134.44 16.94 136.76 14.92L136.82 14.98L136.82 14.98Q132.58 16.26 129.23 16.45L129.30 16.52L129.36 16.58Q126.30 18.66 121.43 23.34L121.44 23.35L121.47 23.38Q121.16 20.86 120.59 18.31L120.60 18.32L120.51 18.23Q119.28 18.03 118.29 17.69L118.35 17.75L118.45 17.85Q118.24 17.10 117.67 15.66Z"/><path d="M17 6 C72 1,66 33,148 37" stroke="#888" fill="none"/><path d="M2 17 C90 6,66 27,130 26" stroke="#888" fill="none"/><path fill="#222" d="M60.69 40.23L60.62 40.16L58.24 33.33L58.31 33.39Q53.95 20.82 48.01 14.42L47.92 14.32L47.84 14.24Q50.00 15.45 52.59 16.06L52.58 16.06L52.55 16.02Q57.75 22.37 62.09 35.12L61.94 34.97L62.11 35.14Q65.02 26.89 65.70 25.29L65.66 25.25L65.65 25.25Q68.22 19.81 71.03 16.50L70.87 16.34L70.92 16.39Q73.01 16.05 75.64 15.17L75.68 15.21L75.60 15.13Q70.99 19.69 67.94 26.92L68.04 27.03L68.09 27.07Q66.53 30.58 62.84 40.10L63.00 40.26L62.92 40.17Q62.31 40.14 61.74 40.10L61.78 40.14L61.78 40.14Q61.30 40.23 60.73 40.27ZM65.62 42.57L65.63 42.58L65.62 42.57Q68.54 32.70 70.10 28.67L70.02 28.58L70.02 28.59Q73.09 20.96 77.51 16.08L77.35 15.93L77.37 15.95Q76.47 16.45 74.37 17.18L74.39 17.19L75.45 15.78L75.43 15.76Q75.93 15.00 76.54 14.36L76.66 14.48L76.57 14.39Q73.82 15.44 70.81 16.01L70.82 16.03L70.74 15.94Q66.53 21.44 62.65 32.90L62.58 32.83L62.53 32.79Q58.85 22.63 55.66 18.26L55.66 18.26L55.64 18.24Q55.23 18.14 54.36 17.98L54.48 18.11L54.47 18.10Q54.12 17.60 52.53 15.54L52.68 15.70L52.64 15.66Q49.65 14.91 46.94 13.50L46.92 13.48L47.04 13.60Q53.61 20.63 57.99 33.42L57.88 33.31L57.93 33.36Q59.11 36.98 60.29 40.56L60.31 40.57L60.27 40.53Q60.70 40.66 61.54 40.55L61.63 40.64L61.48 40.48Q61.90 41.25 62.58 42.58L62.69 42.69L62.59 42.58Q63.34 42.43 64.07 42.50L64.16 42.59L64.12 42.56Q64.91 42.62 65.67 42.62Z"/><path fill="#444" d="M82.50 30.36L82.62 30.47L82.56 30.41Q79.16 36.84 75.74 40.80L75.76 40.82L75.70 40.76Q73.70 41.05 71.27 41.92L71.35 42.01L71.28 41.94Q76.36 36.51 81.12 28.10L81.12 28.09L81.09 28.07Q76.35 20.97 70.37 14.57L70.48 14.68L70.50 14.70Q73.43 15.92 75.72 16.41L75.66 16.36L75.72 16.42Q80.34 21.60 82.77 25.56L82.76 25.55L82.65 25.44Q85.24 21.11 89.17 16.69L89.12 16.64L89.15 16.68Q90.73 16.35 93.93 15.59L94.05 15.71L93.89 15.55Q87.84 22.03 84.38 27.97L84.37 27.96L84.33 27.92Q89.68 36.77 94.06 41.34L93.88 41.16L94.02 41.30Q91.44 40.51 89.34 40.28L89.33 40.26L89.28 40.22Q86.55 37.30 82.63 30.48ZM89.15 40.50L89.31 40.66L89.14 40.49Q89.52 40.61 89.98 40.73L89.88 40.63L89.99 40.73Q90.80 41.51 92.32 43.11L92.20 42.98L92.38 43.16Q95.74 43.98 98.79 45.35L98.65 45.21L98.67 45.23Q91.49 38.58 86.39 29.82L86.42 29.85L86.42 29.86Q90.22 23.27 96.13 16.42L96.11 16.40L96.05 16.34Q94.76 17.14 92.59 17.67L92.54 17.62L92.40 17.49Q93.34 16.64 95.09 14.85L95.07 14.83L95.13 14.89Q92.80 15.83 89.10 16.40L89.00 16.29L88.97 16.27Q85.51 20.03 82.92 24.33L83.02 24.44L83.09 24.51Q82.00 22.73 80.82 21.25L80.97 21.40L78.67 18.45L78.28 18.44L78.16 18.32Q78.20 18.51 77.97 18.44L77.88 18.34L77.81 18.27Q77.19 17.50 75.70 15.94L75.79 16.03L75.79 16.03Q71.82 14.99 69.23 13.62L69.39 13.78L69.40 13.79Q75.95 20.87 80.52 27.91L80.59 27.98L80.60 28.00Q76.09 36.16 70.34 42.75L70.38 42.78L70.31 42.71Q71.76 42.18 73.89 41.61L73.91 41.64L72.50 42.96L72.54 43.00Q72.55 43.01 71.22 44.35L71.30 44.43L71.23 44.36Q74.23 43.28 77.39 42.79L77.35 42.75L77.28 42.68Q81.28 38.15 83.87 33.39L83.93 33.46L83.91 33.44Q86.54 37.75 89.25 40.60Z"/><path fill="#222" d="M41.39 29.97L41.42 29.99L41.24 29.82Q38.85 29.83 37.52 31.05L37.47 30.99L37.41 30.93Q36.08 32.16 36.39 34.67L36.37 34.66L36.47 34.75Q36.65 37.14 37.87 38.40L37.87 38.40L37.86 38.39Q38.98 39.77 41.11 39.70L41.27 39.86L41.26 39.85Q41.69 39.71 41.88 39.71L41.87 39.69L41.96 39.79Q45.35 39.02 45.46 34.42L45.63 34.59L45.51 34.47Q45.64 32.16 44.95 31.36L44.91 31.31L44.89 31.29Q43.87 30.05 41.32 29.89ZM44.58 41.57L44.64 41.63L44.69 41.68Q43.26 42.15 41.69 42.07L41.75 42.13L41.78 42.15Q37.89 42.31 36.60 39.72L36.66 39.78L36.69 39.81Q36.38 45.02 35.05 49.28L35.21 49.45L35.15 49.38Q33.38 49.90 31.75 50.63L31.65 50.53L31.78 50.66Q34.23 44.58 33.96 37.61L34.05 37.70L34.02 37.67Q33.82 30.89 30.93 24.83L30.86 24.76L30.95 24.86Q32.71 25.85 34.42 26.31L34.58 26.47L34.95 27.79L35.08 27.92Q35.03 28.10 35.30 29.21L35.49 29.39L35.31 29.22Q36.52 27.34 40.09 27.15L40.06 27.11L39.96 27.01Q40.96 27.10 41.84 27.10L41.83 27.10L42.31 27.08L42.31 27.08Q42.45 27.10 42.64 27.14L42.62 27.12L42.90 27.09L42.95 27.15Q45.03 27.44 45.76 27.67L45.74 27.66L45.60 27.52Q47.20 28.09 48.08 29.04L48.05 29.01L48.12 29.09Q48.87 30.18 48.83 31.59L48.93 31.69L48.88 31.63Q48.81 34.42 48.01 37.08L48.05 37.12L48.00 37.07Q46.96 40.57 44.60 41.59ZM48.95 42.29L48.86 42.16L49.00 42.30Q49.92 40.13 50.22 36.02L50.34 36.14L50.33 36.12Q50.40 34.30 50.40 33.04L50.42 33.06L50.55 33.19Q50.43 31.54 49.67 30.13L49.81 30.28L49.78 30.25Q49.30 29.73 48.80 29.35L48.87 29.41L48.64 29.07L48.36 28.68L48.47 28.67L48.33 28.53Q46.64 26.53 42.30 26.53L42.36 26.60L41.85 26.70L41.80 26.65Q37.10 26.59 35.46 28.19L35.46 28.19L35.53 28.25Q35.27 27.65 35.12 27.16L35.15 27.19L34.93 26.17L34.93 26.17Q32.46 25.57 30.25 24.08L30.28 24.11L30.25 24.08Q33.46 30.34 33.77 37.57L33.71 37.51L33.76 37.57Q34.03 44.80 31.17 51.27L31.16 51.26L33.14 50.38L33.13 50.37Q32.80 51.04 32.12 52.60L32.15 52.63L32.17 52.65Q34.94 51.65 37.27 51.31L37.13 51.17L37.26 51.30Q38.25 46.35 38.40 42.62L38.39 42.61L38.43 42.66Q39.94 44.24 43.56 44.47L43.44 44.35L43.57 44.48Q47.44 44.66 48.88 42.22L48.88 42.21ZM43.31 32.23L43.19 32.11L43.19 32.11Q43.86 32.06 44.97 32.40L44.95 32.39L45.07 32.51Q45.31 33.47 45.27 34.65L45.28 34.65L45.20 34.58Q45.17 35.46 44.98 36.11L45.02 36.15L45.07 36.20Q44.34 39.09 41.83 39.39L41.70 39.27L41.95 39.40L41.82 39.26Q41.77 39.30 41.66 39.34L41.74 39.42L41.10 39.31L41.13 39.34Q39.90 39.29 38.91 38.80L39.08 38.96L38.64 36.81L38.66 36.83Q38.52 34.52 39.81 33.49L39.84 33.52L39.80 33.48Q40.84 32.43 43.24 32.16Z"/></svg>