<svg xmlns="http://www.w3.org/2000/svg" width="150" height="50" viewBox="0,0,150,50"><path d="M5 10 C79 16,73 13,140 30" stroke="#666" fill="none"/><path d="M7 44 C85 47,68 43,145 31" stroke="#999" fill="none"/><path fill="#111" d="M45.68 29.80L45.79 29.91L45.83 29.95Q45.51 29.85 45.20 29.85L45.17 29.82L45.25 29.90Q43.79 29.78 42.35 30.61L42.50 30.76L42.48 30.75Q41.08 31.78 41.08 33.69L41.07 33.68L41.13 33.74Q41.03 37.06 42.55 38.39L42.55 38.39L42.58 38.42Q43.51 39.58 45.79 39.58L45.75 39.54L45.87 39.66Q46.10 39.66 46.41 39.66L46.35 39.61L46.38 39.63Q48.12 39.66 49.26 38.02L49.34 38.10L49.23 37.99Q50.26 36.48 50.19 34.69L50.15 34.64L50.30 34.80Q50.20 34.17 50.20 33.75L50.34 33.88L50.19 33.73Q50.33 32.09 48.96 30.93L48.96 30.92L48.98 30.95Q47.62 29.79 45.83 29.95ZM50.23 40.02L50.21 40.00L50.32 40.12Q49.31 42.04 45.58 42.15L45.62 42.19L45.48 42.04Q42.16 42.23 40.56 40.63L40.49 40.56L40.52 40.59Q38.97 38.73 38.17 33.93L38.21 33.97L38.34 34.11Q37.93 32.26 37.93 31.00L38.00 31.06L37.94 31.01Q37.94 29.22 38.66 28.15L38.67 28.16L38.77 28.25Q40.10 26.85 43.07 26.85L42.96 26.73L42.95 26.72Q49.24 26.70 51.14 29.28L51.16 29.30L51.15 29.29Q51.37 28.52 51.79 26.92L51.81 26.95L51.91 27.04Q53.04 26.61 55.47 25.81L55.60 25.94L55.58 25.92Q53.06 31.47 52.83 37.79L52.89 37.84L52.88 37.83Q52.62 43.97 54.75 49.80L54.78 49.82L54.78 49.82Q53.08 49.23 51.29 48.96L51.32 48.99L51.19 48.86Q50.31 44.93 50.19 39.98ZM51.02 49.26L51.08 49.32L51.05 49.29Q51.81 49.48 53.22 49.78L53.06 49.63L53.22 49.79Q53.33 50.39 53.90 51.80L53.86 51.76L53.97 51.87Q56.59 52.63 58.88 53.92L58.80 53.84L58.91 53.95Q54.76 47.25 54.76 38.73L54.84 38.80L54.78 38.75Q54.81 32.42 57.29 26.63L57.27 26.61L57.28 26.63Q56.66 26.99 55.29 27.64L55.30 27.65L55.19 27.55Q55.51 26.76 56.16 25.20L56.06 25.10L56.17 25.21Q54.66 25.80 51.47 26.68L51.42 26.63L51.41 26.62Q51.31 27.21 51.01 28.39L51.10 28.48L50.96 28.34Q48.91 26.41 42.79 26.26L42.96 26.43L42.83 26.30Q39.74 26.34 38.37 27.82L38.22 27.67L38.19 27.64Q37.52 28.87 37.56 30.78L37.58 30.79L37.55 30.77Q37.60 33.71 38.59 37.48L38.68 37.57L38.76 37.65Q39.24 39.88 40.15 40.83L40.15 40.83L40.62 41.30L40.57 41.24Q41.84 44.12 47.29 44.35L47.27 44.33L47.26 44.32Q48.23 44.30 50.06 44.00L50.13 44.07L50.12 44.06Q50.41 46.98 51.02 49.26ZM47.67 32.21L47.67 32.21L47.64 32.18Q48.70 32.17 49.53 32.47L49.65 32.58L49.64 32.58Q49.71 32.99 49.83 33.60L49.84 33.62L49.91 33.68Q50.00 34.23 49.93 34.84L49.96 34.87L49.96 34.88Q49.85 36.67 48.82 37.96L48.90 38.04L48.93 38.07Q47.63 39.37 45.77 39.18L45.92 39.32L45.89 39.30Q44.51 39.21 43.56 38.80L43.64 38.88L43.60 38.84Q43.29 38.07 43.29 36.85L43.24 36.80L43.25 36.81Q43.14 36.40 43.14 36.09L43.30 36.25L43.17 36.12Q43.15 34.35 44.49 33.19L44.49 33.20L44.44 33.14Q45.82 32.03 47.57 32.11Z"/><path fill="#222" d="M19.12 29.58L19.19 29.65L19.18 29.63Q19.13 33.86 18.41 38.01L18.52 38.11L18.36 37.96Q20.74 37.51 23.82 37.40L23.78 37.36L23.82 37.40Q25.21 37.65 26.27 36.64L26.24 36.60L26.28 36.65Q27.20 35.49 27.20 34.16L27.32 34.28L27.20 34.16Q27.17 33.82 27.13 33.55L27.17 33.59L27.29 33.71Q27.13 30.78 24.88 29.94L24.81 29.86L24.89 29.94Q24.15 29.66 23.46 29.74L23.32 29.60L23.28 29.55Q22.29 29.56 21.27 29.59L21.28 29.61L21.20 29.52Q20.14 29.57 19.11 29.57ZM18.01 19.25L18.03 19.27L17.88 19.12Q18.85 22.53 19.12 26.91L19.10 26.89L19.09 26.89Q20.50 26.96 23.16 27.00L23.15 26.98L23.24 27.08Q26.12 27.06 26.46 23.52L26.47 23.53L26.46 23.52Q26.74 21.67 25.33 20.83L25.33 20.83L25.28 20.78Q24.43 20.31 20.02 19.67L19.93 19.58L19.95 19.59Q18.91 19.48 18.00 19.25ZM14.28 42.06L14.34 42.12L14.40 42.18Q16.82 35.46 16.55 28.08L16.50 28.03L16.43 27.96Q16.22 20.74 13.29 14.27L13.30 14.28L13.34 14.32Q17.13 16.86 23.36 17.11L23.24 16.99L23.40 17.15Q29.47 17.24 29.81 20.13L29.93 20.25L29.91 20.23Q30.32 23.08 28.91 25.74L28.81 25.64L28.87 25.70Q28.01 27.09 26.42 27.78L26.36 27.72L26.45 27.82Q30.15 28.54 30.37 33.91L30.25 33.78L30.25 33.78Q30.47 35.03 30.39 36.43L30.44 36.48L30.40 36.45Q30.24 37.65 29.31 38.59L29.43 38.71L29.43 38.71Q28.34 39.49 27.01 39.64L27.15 39.78L27.06 39.69Q25.68 39.87 24.62 39.87L24.68 39.94L24.54 39.80Q18.84 39.81 14.31 42.09ZM27.18 42.47L27.12 42.41L27.15 42.44Q28.07 42.49 29.94 42.61L29.88 42.54L29.82 42.49Q31.33 42.63 32.44 41.76L32.52 41.84L32.38 41.70Q33.14 40.75 33.03 39.19L33.06 39.22L33.05 39.21Q33.02 38.30 32.29 34.83L32.36 34.91L32.32 34.86Q31.73 31.72 29.86 30.24L29.84 30.21L29.31 29.27L29.42 29.37Q30.97 27.84 31.54 24.07L31.66 24.19L31.53 24.06Q31.74 22.97 31.66 21.57L31.65 21.55L31.76 21.66Q31.73 20.38 30.63 19.54L30.55 19.47L30.45 19.36Q30.11 19.14 30.00 19.10L30.03 19.13L30.11 19.21Q29.94 18.77 29.10 17.97L29.11 17.98L29.02 17.89Q27.56 16.89 23.33 16.70L23.32 16.68L23.24 16.60Q16.65 16.37 12.65 13.48L12.73 13.56L12.63 13.46Q15.84 20.40 16.14 27.93L16.16 27.95L16.19 27.98Q16.61 35.90 13.79 42.83L13.75 42.78L15.88 41.91L15.85 41.88Q15.33 42.88 14.84 44.03L14.94 44.13L14.83 44.02Q19.25 42.27 24.27 42.27L24.25 42.24L24.32 42.32Q25.61 42.20 27.06 42.36ZM24.99 31.87L25.04 31.92L25.02 31.90Q25.77 31.85 26.68 32.31L26.53 32.16L26.61 32.23Q26.75 32.60 26.90 33.67L26.88 33.64L26.91 33.68Q27.01 34.95 26.07 36.00L26.16 36.09L26.10 36.02Q25.12 37.03 23.71 36.91L23.84 37.04L22.36 37.16L22.22 37.02Q21.50 37.09 20.77 37.21L20.90 37.34L20.83 37.26Q21.18 35.49 21.26 32.02L21.20 31.97L21.19 31.96Q21.93 31.97 23.19 31.93L23.11 31.86L23.06 31.81Q24.44 31.89 25.05 31.93ZM23.91 22.23L23.93 22.24L24.24 22.17L24.26 22.19Q24.49 22.20 24.68 22.24L24.79 22.34L25.07 22.24L25.39 22.37L26.09 22.54L26.17 22.62Q26.22 22.83 26.22 23.13L26.23 23.14L26.09 23.53L26.20 23.64Q26.09 24.78 25.21 25.72L25.23 25.74L25.19 25.70Q24.41 26.73 23.19 26.73L23.25 26.78L23.09 26.62Q22.21 26.77 22.21 26.77L22.08 26.64L22.08 26.64Q20.88 26.73 21.22 26.73L21.17 26.68L21.21 26.72Q21.06 25.08 20.75 22.04L20.87 22.16L20.89 22.17Q22.42 22.26 23.94 22.26Z"/><path fill="#333" d="M72.27 18.45L72.17 18.35L72.34 18.52Q71.47 18.75 71.31 19.55L71.31 19.55L71.36 24.74L71.37 24.75Q72.52 24.75 74.72 24.49L74.74 24.50L74.73 24.50Q74.62 24.84 74.58 25.68L74.60 25.69L74.76 25.85Q74.76 26.65 74.76 27.11L74.73 27.08L73.09 27.12L73.11 27.14Q72.35 27.25 71.47 27.25L71.37 27.14L71.46 27.23Q71.34 31.30 71.26 39.68L71.31 39.73L71.26 39.67Q69.20 39.90 67.71 40.58L67.60 40.47L67.56 40.43Q68.68 34.32 68.56 27.08L68.58 27.10L68.57 27.09Q67.87 27.00 66.57 26.73L66.59 26.75L66.56 26.72Q66.66 25.83 66.47 23.89L66.36 23.78L66.47 23.89Q67.51 24.32 68.46 24.51L68.49 24.54L68.55 24.59Q68.49 23.92 68.18 21.45L68.23 21.49L68.18 21.44Q68.01 19.45 68.01 18.49L67.96 18.44L67.87 18.35Q67.90 16.71 69.31 16.14L69.42 16.25L69.37 16.20Q70.27 15.92 75.10 15.08L75.06 15.04L74.96 14.94Q75.71 14.74 76.55 14.62L76.65 14.72L76.71 14.78Q76.35 15.42 76.20 16.29L76.28 16.37L75.95 17.91L76.01 17.97Q75.27 17.73 74.78 17.84L74.81 17.87L74.78 17.84Q74.21 17.88 72.30 18.49ZM77.70 19.58L77.69 19.57L77.75 19.63Q78.01 17.34 78.61 14.79L78.65 14.83L78.65 14.82Q78.04 15.17 76.75 15.77L76.78 15.81L77.20 14.13L77.14 14.07Q75.93 14.27 73.45 14.80L73.38 14.73L73.49 14.84Q72.20 14.80 69.00 15.72L69.09 15.81L69.13 15.85Q67.45 16.15 67.45 18.01L67.56 18.12L67.49 18.05Q67.41 18.28 67.49 18.62L67.60 18.73L67.49 18.63Q67.83 20.06 67.94 21.40L68.02 21.48L68.11 24.04L68.12 24.05Q66.74 23.66 66.09 23.20L66.13 23.25L66.09 23.20Q66.19 24.14 66.23 25.17L66.28 25.22L66.34 27.14L66.38 27.18Q67.02 27.29 67.82 27.37L67.81 27.35L67.94 29.58L68.28 29.54L68.22 29.48Q68.07 35.57 67.08 41.02L67.09 41.02L67.21 41.15Q68.16 40.61 69.34 40.34L69.37 40.38L69.07 42.33L69.23 42.48Q70.32 42.05 71.62 42.01L71.75 42.15L71.80 42.19Q72.87 42.01 74.13 42.28L74.21 42.36L74.19 42.34Q73.27 37.27 73.27 29.32L73.31 29.36L73.36 29.41Q74.51 29.45 76.60 29.52L76.47 29.39L76.48 27.54L76.45 27.51Q76.51 26.61 76.55 25.66L76.60 25.72L76.58 25.70Q76.00 25.68 74.93 25.95L75.06 26.08L74.99 26.01Q74.92 25.25 75.03 23.92L75.17 24.05L75.09 23.98Q74.36 24.31 73.56 24.39L73.46 24.29L73.48 24.31Q73.39 22.81 73.51 21.40L73.55 21.45L73.61 21.50Q73.69 20.79 74.23 20.45L74.24 20.46L74.30 20.52Q75.26 19.84 76.08 19.77L76.15 19.84L76.03 19.72Q76.78 19.57 77.62 19.50Z"/><path fill="#111" d="M119.74 27.67L119.77 27.70L119.70 27.63Q117.56 27.74 116.29 29.24L116.30 29.26L116.24 29.20Q114.97 30.70 114.85 32.98L114.74 32.87L114.77 32.90Q114.76 35.67 115.60 36.62L115.45 36.47L115.47 36.49Q116.63 37.81 118.96 37.66L118.88 37.58L119.01 37.72Q123.67 37.42 124.05 34.41L123.95 34.31L124.04 34.41Q124.02 33.47 124.02 32.67L124.11 32.77L124.13 32.78Q124.10 30.78 122.96 29.25L122.85 29.14L122.84 29.14Q121.73 27.68 119.79 27.72ZM124.49 37.67L124.57 37.76L124.45 37.63Q122.99 39.79 118.61 40.02L118.73 40.14L118.79 40.19Q114.60 40.35 112.96 39.24L112.84 39.12L112.95 39.23Q112.01 38.32 111.86 36.61L111.76 36.52L111.70 36.46Q111.69 35.38 111.88 33.51L112.02 33.66L112.01 33.64Q112.48 29.32 113.70 27.49L113.62 27.42L113.69 27.48Q115.34 25.02 119.19 25.06L119.06 24.93L119.15 25.03Q121.60 25.00 123.88 27.32L123.98 27.42L124.00 27.44Q124.11 21.61 125.71 15.10L125.64 15.03L125.56 14.94Q127.49 14.56 129.36 13.72L129.43 13.80L129.45 13.81Q126.85 20.43 126.58 27.43L126.57 27.42L126.57 27.42Q126.25 34.56 128.38 41.15L128.27 41.03L128.39 41.16Q126.67 40.46 124.96 40.08L125.04 40.17L125.08 40.20Q124.77 38.90 124.62 37.80ZM127.62 43.24L127.56 43.17L127.54 43.16Q129.61 43.71 132.17 45.23L132.25 45.32L132.18 45.24Q128.44 38.16 128.29 29.86L128.37 29.94L128.32 29.90Q128.22 21.72 131.30 14.33L131.34 14.38L131.39 14.42Q130.67 14.84 129.22 15.49L129.23 15.49L129.20 15.47Q129.56 14.34 130.17 13.13L130.07 13.03L130.04 13.00Q127.68 14.10 125.24 14.67L125.26 14.68L125.20 14.63Q123.77 20.43 123.50 26.52L123.58 26.60L123.67 26.69Q121.68 24.77 119.17 24.66L119.21 24.70L119.13 24.62Q115.77 24.57 113.87 26.67L113.89 26.70L113.72 26.52Q112.13 29.01 111.71 33.69L111.61 33.59L111.66 33.63Q111.47 36.45 111.47 36.87L111.36 36.76L111.48 36.88Q111.39 38.47 112.53 39.53L112.55 39.55L112.55 39.55Q112.88 39.88 113.07 39.96L112.94 39.82L113.49 40.56L113.59 40.67Q114.44 41.90 117.41 42.16L117.41 42.16L117.53 42.29Q119.61 42.31 120.98 42.39L121.12 42.52L121.07 42.47Q125.20 42.61 126.91 41.28L126.90 41.26L126.97 41.33Q127.17 42.10 127.63 43.25ZM121.34 29.95L121.23 29.85L121.29 29.90Q122.40 29.99 123.24 30.48L123.29 30.53L123.30 30.54Q123.63 31.67 123.70 32.70L123.80 32.79L123.74 32.73Q123.94 36.86 118.92 37.20L118.99 37.28L119.02 37.31Q118.23 37.42 117.12 37.16L116.99 37.03L117.12 37.16Q116.73 36.38 116.65 35.85L116.66 35.86L116.79 35.99Q116.61 35.20 116.65 34.59L116.81 34.75L116.74 34.68Q117.01 31.22 119.64 30.23L119.66 30.25L119.72 30.31Q120.53 29.79 121.21 29.83Z"/><path fill="#333" d="M97.00 18.51L96.91 18.43L96.95 18.47Q96.17 18.79 96.02 19.59L96.15 19.73L96.06 24.77L96.02 24.73Q97.15 24.72 99.36 24.45L99.51 24.60L99.49 24.59Q99.46 25.01 99.42 25.85L99.35 25.78L99.32 25.75Q99.26 26.49 99.26 26.95L99.24 26.93L97.67 27.03L97.79 27.15Q96.89 27.12 96.01 27.12L96.06 27.17L95.96 27.07Q96.03 31.33 95.95 39.70L95.91 39.66L96.06 39.81Q93.73 39.76 92.24 40.45L92.31 40.52L92.24 40.44Q93.40 34.37 93.28 27.13L93.33 27.18L93.19 27.05Q92.59 27.05 91.30 26.79L91.27 26.76L91.24 26.73Q91.35 25.85 91.16 23.90L91.03 23.78L91.18 23.93Q92.29 24.43 93.24 24.62L93.11 24.49L93.24 24.61Q93.06 23.83 92.76 21.36L92.84 21.44L92.83 21.42Q92.62 19.39 92.62 18.44L92.61 18.43L92.53 18.35Q92.67 16.81 94.08 16.24L93.93 16.09L93.94 16.11Q94.88 15.87 99.72 15.03L99.65 14.97L99.73 15.04Q100.38 14.74 101.21 14.62L101.33 14.73L101.39 14.80Q101.10 15.50 100.95 16.37L100.90 16.33L100.64 17.94L100.56 17.85Q99.93 17.71 99.43 17.83L99.50 17.89L99.53 17.93Q98.77 17.77 96.86 18.38ZM102.45 19.67L102.36 19.58L102.33 19.54Q102.69 17.35 103.29 14.80L103.34 14.84L103.26 14.77Q102.68 15.14 101.39 15.75L101.46 15.82L101.87 14.13L101.89 14.15Q100.61 14.29 98.14 14.82L98.05 14.73L98.17 14.86Q96.85 14.79 93.66 15.71L93.73 15.78L93.66 15.71Q92.19 16.22 92.19 18.09L92.13 18.03L92.16 18.06Q92.10 18.30 92.17 18.64L92.20 18.67L92.34 18.81Q92.45 20.02 92.56 21.35L92.61 21.40L92.82 24.08L92.84 24.11Q91.48 23.73 90.83 23.27L90.73 23.17L90.82 23.26Q90.80 24.08 90.84 25.11L90.82 25.09L91.02 27.16L90.99 27.13Q91.80 27.40 92.59 27.47L92.60 27.48L92.65 29.63L92.94 29.54L92.89 29.48Q92.74 35.58 91.75 41.02L91.90 41.17L91.86 41.13Q92.89 40.68 94.07 40.41L94.05 40.39L93.78 42.36L93.90 42.49Q95.09 42.15 96.38 42.11L96.32 42.05L96.30 42.03Q97.54 42.02 98.80 42.28L98.78 42.26L98.90 42.39Q97.92 37.26 97.92 29.30L98.07 29.44L97.96 29.33Q99.02 29.29 101.11 29.37L101.24 29.50L101.24 27.63L101.23 27.62Q101.19 26.63 101.23 25.68L101.33 25.78L101.14 25.59Q100.64 25.66 99.58 25.93L99.76 26.11L99.76 26.11Q99.72 25.39 99.84 24.06L99.75 23.97L99.83 24.05Q99.01 24.30 98.21 24.37L98.18 24.34L98.12 24.28Q98.18 22.93 98.29 21.53L98.33 21.56L98.31 21.55Q98.40 20.83 98.93 20.48L98.85 20.41L98.90 20.45Q99.83 19.75 100.65 19.67L100.82 19.84L100.82 19.85Q101.45 19.58 102.29 19.51Z"/></svg>