<svg xmlns="http://www.w3.org/2000/svg" width="150" height="50" viewBox="0,0,150,50"><path fill="#333" d="M103.02 40.27L102.88 40.13L100.53 33.33L100.45 33.25Q96.06 20.64 90.12 14.24L90.14 14.26L90.25 14.37Q92.16 15.33 94.75 15.93L94.75 15.94L94.73 15.92Q99.87 22.20 104.21 34.95L104.34 35.09L104.31 35.05Q107.44 27.03 108.13 25.43L108.02 25.32L108.02 25.33Q110.50 19.81 113.32 16.50L113.20 16.39L113.33 16.51Q115.29 16.03 117.91 15.16L117.92 15.16L117.88 15.13Q113.39 19.81 110.34 27.04L110.30 27.00L110.32 27.02Q108.88 30.64 105.19 40.16L105.26 40.23L105.17 40.14Q104.55 40.10 103.98 40.06L104.07 40.14L104.04 40.12Q103.60 40.25 103.03 40.28ZM108.01 42.68L107.93 42.60L107.97 42.64Q110.69 32.56 112.25 28.53L112.25 28.53L112.22 28.50Q115.24 20.82 119.66 15.95L119.76 16.05L119.76 16.05Q118.76 16.46 116.66 17.18L116.52 17.03L117.78 15.82L117.84 15.88Q118.38 15.17 118.99 14.52L118.85 14.38L118.92 14.45Q116.08 15.41 113.07 15.98L113.09 16.01L113.01 15.92Q108.70 21.32 104.82 32.78L104.94 32.90L104.77 32.74Q101.12 22.61 97.92 18.23L97.96 18.27L97.90 18.21Q97.63 18.25 96.76 18.10L96.73 18.07L96.77 18.11Q96.45 17.64 94.85 15.59L94.95 15.68L95.00 15.73Q92.03 15.01 89.33 13.60L89.23 13.51L89.17 13.44Q95.75 20.48 100.13 33.28L100.23 33.37L100.22 33.36Q101.42 37.00 102.61 40.58L102.66 40.64L102.71 40.69Q102.96 40.64 103.80 40.52L103.86 40.58L103.78 40.50Q104.24 41.30 104.92 42.63L104.87 42.59L104.79 42.50Q105.67 42.47 106.40 42.55L106.45 42.60L106.46 42.61Q107.29 42.72 108.05 42.72Z"/><path d="M8 13 C70 37,77 32,143 7" stroke="#222" fill="none"/><path d="M8 32 C61 29,95 6,137 11" stroke="#666" fill="none"/><path fill="#222" d="M14.97 40.38L14.93 40.34L14.94 40.34Q13.47 40.36 11.91 39.94L11.97 40.00L12.01 40.05Q10.81 39.14 10.65 37.50L10.52 37.37L10.67 37.52Q10.58 37.28 10.77 34.65L10.77 34.65L10.82 34.71Q11.81 34.47 13.82 34.09L13.86 34.12L13.52 34.74L13.70 34.92Q13.36 36.59 14.76 37.16L14.81 37.21L14.85 37.24Q15.54 37.48 17.64 37.48L17.64 37.49L17.67 37.52Q19.30 37.40 19.49 37.32L19.52 37.35L19.33 37.16Q20.32 37.09 21.05 36.59L21.05 36.60L21.12 36.67Q22.50 35.69 22.31 33.59L22.26 33.54L22.27 33.55Q22.03 31.06 20.29 29.50L20.41 29.61L20.30 29.51Q18.55 27.92 16.07 27.92L16.15 28.00L16.19 27.81L16.15 27.78Q16.60 27.80 17.47 27.72L17.46 27.71L17.40 27.65Q19.34 27.58 20.71 26.34L20.78 26.41L20.62 26.25Q22.00 25.02 22.15 23.15L22.18 23.18L22.16 23.16Q22.34 22.93 22.34 22.58L22.26 22.50L22.38 22.63Q22.32 21.04 20.95 20.12L20.94 20.12L20.98 20.15Q19.72 19.32 18.12 19.43L18.17 19.47L18.02 19.33Q16.90 19.35 15.68 19.77L15.58 19.67L15.56 19.65Q14.09 20.15 13.78 21.29L13.83 21.34L13.87 21.39Q13.68 22.14 13.76 22.90L13.73 22.88L13.63 22.77Q12.77 22.71 10.71 21.99L10.64 21.92L10.67 21.95Q10.45 20.29 10.49 19.45L10.51 19.47L10.51 19.47Q10.52 17.85 11.59 17.16L11.55 17.12L11.53 17.10Q13.08 16.63 14.68 16.63L14.66 16.61L14.69 16.64Q17.73 16.49 20.89 16.76L20.94 16.81L20.91 16.78Q26.07 17.29 25.76 21.06L25.78 21.07L25.81 21.10Q25.65 22.50 25.16 24.06L25.10 24.00L25.17 24.08Q24.21 27.11 21.84 28.02L21.82 28.00L21.92 28.10Q24.41 28.50 25.02 31.85L25.16 31.99L25.05 31.87Q25.42 33.16 25.50 35.18L25.35 35.03L25.45 35.13Q25.58 39.56 20.97 40.02L20.85 39.90L20.87 39.91Q20.20 40.05 14.91 40.31ZM20.15 42.58L20.09 42.53L20.08 42.52Q20.72 42.58 23.57 42.66L23.67 42.76L23.53 42.62Q25.43 42.84 27.06 42.19L27.10 42.22L27.02 42.15Q28.19 41.18 28.00 39.43L27.99 39.42L28.09 39.52Q27.86 38.07 27.55 36.32L27.55 36.32L27.49 36.26Q26.90 31.90 24.96 30.26L24.97 30.27L24.74 29.85L24.62 29.70L24.75 29.82Q26.50 28.37 27.26 24.00L27.17 23.91L27.15 23.88Q27.14 23.39 27.26 22.43L27.25 22.43L27.28 22.46Q27.38 21.72 27.31 21.04L27.40 21.13L27.32 21.05Q27.29 19.50 26.00 18.81L25.94 18.76L25.83 18.72L25.85 18.74Q25.60 17.81 24.46 17.28L24.43 17.24L24.35 17.16Q22.83 16.49 17.69 16.18L17.73 16.22L17.66 16.14Q16.07 16.16 14.47 16.16L14.48 16.17L14.34 16.03Q12.78 16.07 11.26 16.71L11.38 16.84L11.28 16.74Q10.17 17.60 10.17 19.35L10.07 19.25L10.17 19.35Q10.15 18.91 10.41 22.26L10.34 22.19L10.32 22.17Q10.76 22.38 12.40 22.99L12.32 22.92L12.25 22.84Q12.26 23.38 12.22 23.88L12.35 24.01L12.31 23.97Q12.28 24.43 12.31 24.97L12.28 24.94L12.26 24.91Q14.17 25.41 16.19 25.52L16.06 25.40L16.18 25.52Q16.01 23.41 17.12 22.57L17.06 22.52L17.10 22.55Q17.99 21.97 20.01 21.74L20.10 21.82L20.10 21.82Q21.22 21.81 21.80 22.00L21.67 21.87L21.75 21.95Q21.84 22.12 21.88 22.23L21.80 22.16L21.87 22.41L21.91 22.91L21.93 22.93Q21.89 23.08 21.85 23.24L21.79 23.17L21.79 23.17Q21.76 24.93 20.24 26.11L20.26 26.13L20.20 26.07Q19.41 27.11 17.39 27.30L17.24 27.15L17.35 27.26Q16.60 27.39 15.73 27.39L15.83 27.49L15.65 27.31Q15.68 27.64 15.83 28.33L15.90 28.40L16.00 28.50Q17.61 28.35 19.05 29.08L19.22 29.24L18.97 29.11L17.47 29.36L17.42 29.31Q17.43 29.62 17.54 30.23L17.59 30.28L17.51 30.20Q19.83 30.31 21.54 31.64L21.40 31.50L21.39 31.49Q21.60 31.86 21.91 33.49L22.06 33.65L21.95 33.53Q22.26 36.58 19.32 37.00L19.21 36.89L19.23 36.91Q17.10 37.13 16.52 37.09L16.54 37.11L16.64 37.21Q16.02 36.93 15.49 36.86L15.67 37.04L15.66 36.58L15.71 36.06L15.70 35.62L15.77 35.35L15.76 35.34Q14.79 35.40 13.99 35.59L14.01 35.61L14.07 35.66Q14.00 35.40 14.00 35.21L13.94 35.16L14.08 35.30Q14.09 35.07 14.09 34.85L14.12 34.88L14.01 34.77Q14.11 34.42 14.26 33.69L14.15 33.57L14.18 33.61Q12.40 33.93 10.54 34.27L10.50 34.23L10.44 34.17Q10.55 34.78 10.44 35.90L10.29 35.76L10.32 35.79Q10.31 37.00 10.31 37.61L10.35 37.66L10.16 37.47Q10.37 39.66 11.74 40.42L11.63 40.31L11.72 40.40Q13.24 42.72 17.97 42.53L17.86 42.43L17.89 42.46Q18.65 42.46 20.18 42.61Z"/><path fill="#333" d="M53.78 15.77L53.78 15.77L53.82 15.81Q55.83 20.79 56.40 25.97L56.39 25.95L56.40 25.96Q59.98 21.70 65.88 16.86L65.87 16.86L65.85 16.84Q69.10 16.59 71.73 15.79L71.69 15.74L65.22 21.46L65.28 21.53Q61.87 24.47 59.01 27.32L58.97 27.28L58.86 27.16Q66.90 36.39 71.96 41.11L71.87 41.02L71.87 41.02Q68.88 40.20 66.56 40.05L66.56 40.04L66.54 40.02Q60.70 34.57 56.40 28.74L56.53 28.87L56.47 28.82Q56.64 35.49 54.77 40.82L54.77 40.82L54.69 40.74Q54.57 40.89 54.08 41.08L53.96 40.96L54.05 41.24L54.05 41.24Q53.67 41.09 51.12 42.00L51.18 42.06L51.13 42.02Q54.24 35.61 53.90 28.15L53.89 28.14L53.84 28.09Q53.52 20.76 49.98 14.25L49.89 14.17L50.39 14.40L50.89 14.78L50.95 14.81L51.02 14.88Q51.70 15.21 53.91 15.90ZM54.10 15.52L54.16 15.58L54.07 15.49Q51.76 14.89 49.13 13.37L49.25 13.49L49.15 13.38Q53.54 20.78 53.54 29.73L53.52 29.71L53.52 29.71Q53.51 36.71 50.54 42.76L50.59 42.81L52.64 41.97L52.64 41.96Q52.24 42.98 51.56 44.27L51.46 44.17L51.50 44.21Q53.75 43.41 55.69 43.00L55.67 42.98L55.84 42.92L55.87 42.95Q56.07 42.85 56.64 42.69L56.58 42.63L56.53 42.58Q58.26 36.74 58.38 31.94L58.33 31.89L58.34 31.90Q60.44 34.42 62.27 36.29L62.36 36.38L62.19 36.21Q63.52 37.46 66.53 40.43L66.49 40.39L66.48 40.38L66.58 40.48Q67.50 41.21 69.36 42.81L69.31 42.76L69.34 42.78Q73.35 43.64 76.81 45.35L76.64 45.18L76.67 45.20Q67.50 36.76 61.25 29.34L61.18 29.26L61.21 29.29Q65.63 25.03 74.39 16.43L74.36 16.40L74.31 16.35Q71.88 17.62 69.86 18.00L69.69 17.82L69.87 18.00Q71.06 16.98 73.38 14.96L73.34 14.92L73.34 14.92Q69.15 16.25 65.80 16.44L65.85 16.50L65.81 16.45Q62.99 18.78 58.12 23.46L58.02 23.36L58.10 23.44Q57.72 20.85 57.15 18.30L57.20 18.35L57.04 18.19Q56.02 18.20 55.03 17.86L54.94 17.76L55.04 17.86Q54.67 16.96 54.10 15.51Z"/><path fill="#444" d="M43.63 30.95L43.60 30.92L43.54 30.86Q43.54 29.75 41.60 29.03L41.44 28.87L41.62 29.05Q41.00 28.74 40.47 28.74L40.48 28.75L40.41 28.68Q39.22 28.86 38.15 29.43L38.08 29.36L38.03 29.31Q36.78 30.15 36.89 31.37L36.82 31.30L36.71 31.19Q37.15 34.11 37.00 36.35L36.92 36.27L37.04 36.39Q36.86 38.80 36.13 41.31L36.10 41.27L36.15 41.32Q33.92 41.72 32.74 42.14L32.73 42.14L32.90 42.30Q34.35 38.53 34.35 34.54L34.50 34.69L34.33 34.52Q34.40 29.14 31.81 24.69L31.83 24.71L31.91 24.78Q32.94 25.09 35.33 25.81L35.41 25.89L35.42 25.90Q35.73 26.63 36.12 28.16L36.08 28.12L36.19 28.23Q37.43 26.05 41.32 26.13L41.35 26.16L41.38 26.19Q42.90 26.26 43.70 26.38L43.55 26.22L43.54 26.21Q46.60 26.69 46.68 28.71L46.73 28.76L46.65 28.68Q46.63 29.54 46.44 30.57L46.43 30.55L46.45 30.57Q46.02 33.11 46.21 36.12L46.32 36.23L46.20 36.10Q46.35 38.97 47.34 41.52L47.34 41.51L47.39 41.56Q45.68 41.15 43.97 41.00L43.93 40.96L43.97 41.00Q43.43 38.55 43.35 35.89L43.34 35.87L43.43 35.96Q43.40 33.27 43.63 30.95ZM43.52 41.27L43.52 41.28L43.59 41.34Q44.43 41.38 45.72 41.61L45.61 41.50L46.06 42.63L46.07 42.64Q46.18 43.06 46.41 43.59L46.54 43.72L46.44 43.62Q48.70 44.02 51.41 45.20L51.42 45.22L51.46 45.26Q49.04 42.07 48.35 38.26L48.47 38.38L48.46 38.37Q48.05 36.17 48.17 32.48L48.12 32.44L48.14 32.45Q48.13 32.14 48.17 31.34L48.13 31.30L48.13 31.30Q48.36 30.85 48.28 30.35L48.16 30.23L48.15 30.22Q48.07 28.58 46.97 28.08L46.91 28.03L46.96 28.08Q46.88 27.31 46.12 26.70L46.14 26.72L46.17 26.75Q44.40 25.67 41.36 25.75L41.39 25.78L41.40 25.79Q39.44 25.74 38.61 25.93L38.58 25.90L38.59 25.91Q37.19 26.30 36.24 27.21L36.22 27.20L36.20 27.18Q36.15 26.70 35.77 25.68L35.71 25.61L35.70 25.61Q32.90 24.94 31.07 23.95L31.05 23.93L31.15 24.03Q34.05 28.76 34.05 34.50L34.13 34.59L34.06 34.51Q34.11 38.95 32.21 42.79L32.32 42.91L32.26 42.84Q33.02 42.61 34.31 42.23L34.13 42.04L34.17 42.09Q33.69 43.36 33.16 44.35L33.21 44.40L33.26 44.45Q34.54 43.86 38.08 43.29L38.10 43.32L38.07 43.28Q39.14 38.22 39.03 33.39L38.94 33.30L39.06 33.43Q38.96 32.52 40.14 31.80L40.21 31.87L40.14 31.80Q41.24 31.23 42.35 31.12L42.25 31.01L42.25 31.02Q42.75 31.03 43.17 31.22L43.11 31.15L43.16 31.20Q43.09 33.84 43.13 36.39L43.07 36.33L42.97 36.23Q43.12 38.86 43.62 41.37Z"/><path fill="#222" d="M128.44 41.27L128.41 41.25L125.36 41.05L125.35 41.04Q123.02 40.99 122.22 40.88L122.29 40.95L122.20 40.87Q120.42 40.57 119.24 39.69L119.29 39.74L119.27 39.72Q117.89 38.23 117.66 34.88L117.67 34.88L117.72 34.94Q117.70 34.46 117.62 33.24L117.63 33.25L117.48 33.10Q117.54 32.74 117.46 31.63L117.41 31.58L117.54 31.71Q117.47 30.84 117.51 30.12L117.49 30.10L117.42 30.03Q117.70 28.18 118.73 27.42L118.79 27.47L118.66 27.35Q120.66 26.26 125.49 26.03L125.42 25.96L125.45 25.99Q127.47 25.88 128.27 25.88L128.32 25.93L128.32 25.93Q129.73 25.86 131.10 26.16L131.11 26.17L131.08 26.14Q130.61 27.50 130.08 29.32L130.08 29.33L130.00 29.24Q129.54 29.36 129.05 29.32L129.16 29.44L129.06 29.34Q128.94 29.29 128.41 29.18L128.41 29.18L127.46 28.96L127.54 29.03Q126.43 28.72 125.82 28.76L125.70 28.64L125.85 28.79Q121.00 28.74 120.39 31.56L120.43 31.60L120.42 31.58Q120.23 32.80 120.30 33.75L120.25 33.70L120.20 33.64Q120.34 36.23 121.58 37.31L121.71 37.44L121.59 37.32Q122.88 38.46 125.47 38.50L125.51 38.54L125.44 38.47Q126.90 38.48 127.62 38.18L127.64 38.20L128.73 37.76L128.63 37.66Q129.29 37.56 129.86 37.48L129.87 37.50L129.81 37.43Q130.06 39.24 130.44 40.54L130.43 40.52L130.42 40.52Q130.23 40.94 128.44 41.28ZM131.74 44.28L131.69 44.23L131.75 44.28Q132.06 44.25 132.89 44.32L132.97 44.40L132.92 44.35Q133.47 44.29 133.81 43.72L133.90 43.81L133.81 43.72Q132.63 41.66 132.14 39.57L132.22 39.65L132.12 39.55Q131.85 39.59 131.39 39.59L131.36 39.56L131.32 39.52Q130.96 39.57 130.58 39.76L130.52 39.70L130.47 39.65Q130.24 38.51 130.08 37.10L130.10 37.12L130.13 37.14Q129.39 36.94 128.18 37.51L128.15 37.48L128.14 37.47Q126.96 38.09 126.47 38.09L126.47 38.09L126.51 38.13Q126.03 38.15 125.42 38.11L125.43 38.12L125.54 38.23Q124.63 38.20 122.65 37.62L122.62 37.59L122.64 37.61Q122.25 36.84 122.28 35.69L122.30 35.71L122.23 35.64Q122.38 31.38 127.33 30.84L127.37 30.88L127.39 30.90Q128.10 30.92 129.47 31.27L129.38 31.18L129.47 31.27Q130.73 31.50 131.46 31.47L131.63 31.64L131.56 31.57Q132.02 29.36 132.70 27.53L132.67 27.50L132.65 27.48Q132.18 27.28 131.80 27.20L131.87 27.27L131.19 27.28L131.19 27.28Q131.39 26.79 131.77 25.91L131.74 25.89L131.78 25.92Q130.20 25.52 128.63 25.52L128.70 25.58L128.63 25.52Q126.12 25.40 121.74 25.78L121.75 25.79L121.77 25.81Q119.99 26.12 118.42 27.11L118.32 27.01L118.34 27.03Q117.14 28.00 117.14 29.91L117.01 29.77L117.03 29.79Q117.19 30.37 117.30 31.58L117.20 31.49L117.21 31.50Q117.32 32.55 117.28 33.16L117.20 33.09L117.32 33.20Q117.31 35.05 118.03 38.79L117.99 38.74L118.09 38.84Q118.37 39.58 118.87 40.08L118.97 40.18L119.18 40.39L119.07 40.25L119.11 40.29Q120.18 42.46 124.10 43.07L124.16 43.13L124.09 43.05Q127.22 43.52 129.88 43.79L129.96 43.87L130.02 43.92Q130.67 43.85 131.58 44.11Z"/><path fill="#333" d="M88.28 28.68L88.27 28.68L82.45 28.83L82.33 28.72Q79.49 28.85 76.56 28.77L76.60 28.81L76.50 28.71Q76.66 35.46 74.60 40.98L74.63 41.01L74.65 41.02Q72.83 41.52 71.08 42.21L70.98 42.11L71.08 42.21Q73.74 36.38 73.74 29.72L73.79 29.77L73.77 29.75Q73.81 21.30 69.70 14.26L69.69 14.25L69.72 14.28Q71.18 15.01 73.65 15.81L73.65 15.81L73.71 15.87Q75.71 20.80 76.24 25.67L76.40 25.84L76.24 25.67Q79.57 26.22 82.42 26.18L82.47 26.23L82.43 26.19Q85.13 26.22 88.44 25.95L88.42 25.94L88.26 25.78Q88.78 21.42 90.53 16.32L90.59 16.38L90.67 16.46Q92.46 15.89 94.70 15.05L94.68 15.03L94.85 15.19Q91.20 21.90 91.20 29.86L91.22 29.88L91.05 29.71Q91.15 36.01 93.51 41.34L93.46 41.29L93.47 41.30Q91.92 40.74 89.86 40.43L89.87 40.44L89.83 40.40Q88.19 35.42 88.31 28.72ZM89.60 40.78L89.64 40.82L89.49 40.67Q90.65 40.95 91.75 41.22L91.74 41.21L91.66 41.13Q92.09 41.94 92.74 43.42L92.77 43.46L92.66 43.35Q96.12 44.41 97.91 45.32L97.92 45.34L97.94 45.35Q93.30 39.00 93.00 30.74L93.01 30.75L93.08 30.82Q92.78 22.80 96.44 15.99L96.35 15.90L95.33 16.40L95.33 16.40Q94.82 16.61 94.21 16.76L94.32 16.88L94.16 16.72Q94.58 15.92 95.42 14.36L95.47 14.40L95.46 14.40Q92.86 15.49 90.23 15.99L90.29 16.04L90.20 15.95Q88.59 20.85 88.13 25.54L88.01 25.41L88.18 25.58Q85.72 25.82 83.28 25.82L83.10 25.64L83.12 25.66Q80.76 25.70 78.25 25.55L78.30 25.60L78.19 25.49Q78.00 22.25 76.89 18.18L76.94 18.23L76.90 18.19Q76.22 18.07 74.77 17.69L74.83 17.76L74.82 17.74Q74.39 16.48 73.93 15.45L73.91 15.42L73.99 15.51Q71.23 14.72 68.94 13.46L68.93 13.45L68.91 13.43Q73.51 20.88 73.51 29.68L73.51 29.68L73.54 29.71Q73.57 36.70 70.45 42.83L70.32 42.71L70.39 42.77Q71.02 42.41 72.35 41.84L72.54 42.03L72.45 41.94Q72.05 42.72 71.25 44.25L71.35 44.34L71.23 44.22Q74.08 43.27 76.33 42.85L76.28 42.80L76.46 42.98Q78.21 37.32 78.40 31.15L78.44 31.19L78.48 31.23Q80.06 31.13 83.25 31.09L83.13 30.96L83.12 30.95Q86.04 30.98 87.94 31.05L87.99 31.11L87.89 31.00Q88.25 36.84 89.58 40.76Z"/></svg>