<svg xmlns="http://www.w3.org/2000/svg" width="150" height="50" viewBox="0,0,150,50"><path d="M9 27 C79 18,73 8,147 18" stroke="#111" fill="none"/><path fill="#222" d="M84.64 39.90L84.55 39.81L84.55 39.80Q82.62 39.78 80.60 39.97L80.55 39.92L80.65 40.02Q81.34 34.81 81.34 29.97L81.29 29.92L81.31 29.94Q81.23 24.95 80.58 19.74L80.77 19.92L80.70 19.85Q76.14 19.48 72.94 17.81L72.83 17.69L72.12 15.95L72.13 15.97Q72.02 15.55 71.41 14.33L71.35 14.27L71.35 14.27Q76.41 16.93 82.42 17.12L82.48 17.18L82.43 17.13Q88.19 17.18 93.64 15.13L93.82 15.31L93.63 15.12Q92.96 16.58 92.31 18.40L92.32 18.42L92.30 18.40Q88.73 19.73 84.46 19.92L84.54 20.00L84.60 20.06Q84.33 25.01 84.33 29.95L84.35 29.98L84.22 29.85Q84.38 34.95 84.68 39.94ZM94.37 14.49L94.37 14.49L94.48 14.60Q88.51 16.74 82.30 16.55L82.29 16.53L82.33 16.57Q75.66 16.38 70.56 13.41L70.69 13.54L70.66 13.50Q71.37 14.75 72.67 18.02L72.77 18.13L72.59 17.95Q73.26 18.28 74.52 18.85L74.63 18.96L74.49 18.82Q74.85 19.63 75.19 21.16L75.25 21.22L75.09 21.06Q77.55 22.07 80.60 22.30L80.60 22.30L80.61 22.32Q80.93 25.94 80.93 29.71L80.94 29.72L80.84 29.63Q80.82 34.97 80.02 40.34L80.19 40.50L80.10 40.42Q81.75 40.28 82.29 40.28L82.24 40.23L82.37 40.36Q82.38 40.68 82.32 41.35L82.18 41.20L82.27 41.30Q82.29 42.04 82.29 42.38L82.13 42.22L82.23 42.32Q83.28 42.12 84.81 42.20L84.98 42.37L84.90 42.29Q85.83 42.34 87.66 42.49L87.69 42.53L87.65 42.49Q86.49 37.63 86.37 32.46L86.35 32.43L86.33 32.41Q86.16 27.07 86.70 22.16L86.76 22.22L86.66 22.12Q90.61 21.58 93.77 20.36L93.83 20.42L93.88 20.47Q94.51 18.02 95.54 15.96L95.45 15.87L95.59 16.01Q94.13 16.57 93.33 16.87L93.33 16.88L93.44 16.98Q93.87 15.70 94.44 14.56Z"/><path d="M9 11 C56 30,76 23,138 4" stroke="#777" fill="none"/><path fill="#333" d="M18.22 19.56L18.37 19.71L16.82 19.84L16.67 19.69Q14.51 19.89 14.28 21.90L14.22 21.85L14.24 21.87Q14.24 22.66 14.27 23.65L14.18 23.56L14.28 23.66Q14.24 25.52 15.49 26.85L15.59 26.95L15.56 26.92Q16.69 28.13 18.60 27.97L18.75 28.13L18.69 28.07Q20.63 27.80 21.39 26.88L21.56 27.05L21.45 26.95Q22.57 26.08 22.83 23.83L22.77 23.78L22.90 23.90Q23.10 21.59 21.84 20.75L21.90 20.81L21.84 20.75Q20.97 19.96 18.31 19.65ZM24.25 28.79L24.25 28.80L23.02 31.14L22.98 31.10Q20.30 35.92 16.53 39.99L16.50 39.96L16.49 39.95Q14.99 40.25 12.29 41.04L12.14 40.89L12.29 41.04Q17.53 34.67 20.69 29.88L20.70 29.89L20.71 29.90Q19.67 30.53 18.04 30.61L18.11 30.69L18.10 30.67Q15.12 30.85 13.59 28.87L13.56 28.84L13.48 28.76Q12.21 27.11 11.11 22.54L11.22 22.66L11.16 22.60Q11.14 22.11 10.99 21.18L11.07 21.26L10.99 21.18Q10.85 20.26 10.85 19.81L10.95 19.91L10.92 19.88Q10.97 18.14 12.04 17.53L11.99 17.49L12.02 17.51Q13.11 16.63 14.98 16.63L15.14 16.79L15.10 16.75Q18.29 16.74 18.29 16.74L18.21 16.66L18.15 16.60Q20.47 16.78 21.72 16.97L21.59 16.84L21.67 16.92Q23.73 17.12 24.64 17.61L24.79 17.76L24.68 17.65Q26.04 18.40 26.23 20.16L26.27 20.19L26.31 20.23Q26.27 20.42 26.08 23.09L26.16 23.16L26.12 23.13Q25.73 25.25 25.50 26.09L25.46 26.04L25.54 26.12Q25.02 27.39 24.25 28.80ZM26.18 31.22L26.23 31.27L26.34 31.38Q27.19 29.02 27.72 24.72L27.75 24.76L27.80 24.81Q28.05 22.58 28.02 21.71L28.07 21.76L28.04 21.73Q27.89 19.75 26.71 18.84L26.81 18.94L26.39 18.72L26.54 18.86Q26.28 18.10 25.36 17.46L25.39 17.49L25.21 17.30Q23.10 16.48 18.30 16.33L18.27 16.31L18.25 16.28Q17.36 16.34 14.92 16.34L14.76 16.18L14.76 16.18Q12.98 16.15 11.49 16.83L11.57 16.91L11.56 16.90Q10.43 17.72 10.51 19.54L10.48 19.51L10.58 19.61Q10.79 20.54 10.98 22.56L10.92 22.51L10.91 22.49Q11.54 25.14 11.81 25.98L11.69 25.87L11.86 26.03Q12.28 27.75 13.23 29.04L13.31 29.12L13.29 29.10Q13.54 29.43 13.92 29.81L13.89 29.77L13.99 29.88Q14.15 30.23 14.80 31.14L14.76 31.11L14.87 31.21Q16.25 32.48 18.20 32.67L18.27 32.75L18.20 32.68Q16.41 35.45 14.85 37.36L14.82 37.33L11.23 41.73L11.17 41.67Q13.40 40.90 15.04 40.56L15.14 40.66L15.02 40.54Q14.31 41.47 12.75 43.18L12.84 43.27L12.81 43.24Q15.81 42.25 18.94 42.21L19.05 42.32L19.00 42.27Q21.30 39.66 25.64 32.43L25.70 32.48L25.70 32.57L25.61 32.48Q25.83 31.71 26.18 31.21ZM20.22 22.02L20.17 21.97L20.18 21.99Q20.84 21.92 21.30 22.03L21.33 22.07L21.35 22.09Q21.86 22.06 22.24 22.18L22.42 22.36L22.41 22.35Q22.50 22.71 22.58 23.13L22.48 23.02L22.43 22.98Q22.61 23.49 22.49 23.88L22.50 23.88L22.49 23.87Q22.41 25.54 21.23 26.65L21.18 26.60L21.29 26.70Q20.29 27.69 18.66 27.65L18.70 27.70L18.61 27.61Q18.33 27.74 16.80 27.44L16.64 27.27L16.81 27.45Q16.42 26.40 16.42 25.68L16.54 25.80L16.54 25.81Q16.51 25.58 16.51 25.35L16.51 25.36L16.47 25.32Q16.48 23.11 18.76 22.31L18.61 22.16L18.78 22.34Q19.38 22.02 20.22 22.02Z"/><path fill="#222" d="M103.01 41.22L102.98 41.19L101.32 41.24L101.26 41.18Q97.86 41.17 96.91 39.03L96.92 39.05L96.87 38.99Q98.07 37.99 99.52 36.89L99.43 36.80L99.52 36.89Q100.13 39.10 102.98 38.94L102.99 38.95L103.01 38.97Q103.64 38.77 104.67 38.54L104.85 38.72L104.71 38.57Q105.67 38.09 105.59 37.13L105.53 37.08L105.68 37.22Q105.60 36.12 103.81 35.43L103.74 35.36L99.93 33.83L99.87 33.78Q97.53 32.42 97.19 28.88L97.19 28.89L97.26 28.96Q97.02 26.78 99.19 26.21L99.22 26.23L99.29 26.31Q100.25 26.08 103.22 26.08L103.23 26.09L103.11 25.97Q108.01 26.00 108.92 28.51L108.91 28.50L108.97 28.56Q108.29 29.07 107.57 29.52L107.59 29.54L106.16 30.47L106.27 30.58Q105.66 28.56 102.42 28.33L102.38 28.29L102.40 28.31Q101.82 28.33 100.79 28.75L100.75 28.72L100.90 28.86Q100.20 29.08 100.20 30.18L100.32 30.31L100.29 30.27Q100.57 31.27 102.40 31.96L102.46 32.03L102.50 32.07Q103.59 32.47 106.26 33.57L106.22 33.54L106.16 33.48Q108.08 34.41 108.27 36.96L108.27 36.96L108.16 36.85Q108.23 37.49 108.16 38.48L108.17 38.49L108.13 38.45Q108.18 39.42 107.61 40.07L107.56 40.02L107.49 39.95Q105.91 41.07 102.86 41.07ZM107.63 43.67L107.74 43.78L107.69 43.72Q108.55 43.71 109.92 43.40L109.98 43.47L109.92 43.40Q111.09 42.83 110.90 41.61L110.94 41.65L110.79 41.50Q110.72 40.93 110.41 39.33L110.42 39.34L110.38 39.30Q109.94 36.46 108.16 35.25L108.24 35.33L108.21 35.30Q107.71 33.93 106.46 33.21L106.35 33.09L106.41 33.16Q105.02 32.60 102.54 31.65L102.61 31.72L102.68 31.79Q102.69 31.19 102.96 31.07L102.96 31.07L103.10 31.22Q103.61 30.66 104.26 30.62L104.40 30.77L104.33 30.70Q105.11 30.64 105.87 30.90L105.79 30.83L105.89 31.00L105.91 30.91L106.29 31.10L106.22 31.06L106.29 31.13Q107.31 31.55 107.51 32.81L107.42 32.72L107.48 32.78Q108.77 31.98 110.68 30.31L110.68 30.30L110.63 30.26Q110.50 29.67 109.51 28.49L109.32 28.31L109.48 28.46Q108.28 25.70 103.18 25.58L103.19 25.60L103.26 25.67Q99.99 25.52 98.01 26.09L97.97 26.05L98.05 26.13Q96.59 26.65 96.82 28.74L96.92 28.84L96.86 28.79Q97.05 30.12 97.97 32.21L97.77 32.02L97.77 32.02Q98.37 33.19 99.40 33.91L99.44 33.95L99.48 33.99Q100.04 35.36 101.34 36.04L101.47 36.18L101.50 36.20Q102.36 36.38 103.31 36.76L103.35 36.80L105.18 37.48L105.15 37.46Q104.85 38.60 102.91 38.49L102.91 38.49L102.92 38.50Q102.53 38.61 101.31 38.30L101.23 38.22L101.18 38.02L101.08 38.15L101.22 38.28Q100.29 37.85 99.65 36.37L99.56 36.28L99.70 36.43Q97.52 37.94 96.42 39.08L96.38 39.04L96.42 39.08Q96.66 39.93 97.69 40.73L97.77 40.81L97.53 40.88L97.46 40.81Q99.06 43.09 103.29 43.48L103.24 43.43L103.27 43.45Q104.51 43.56 107.75 43.79Z"/><path fill="#333" d="M62.79 20.17L62.70 20.08L62.67 20.06Q58.35 20.04 54.66 19.05L54.79 19.17L54.77 19.16Q56.32 23.76 56.51 28.59L56.42 28.50L56.50 28.58Q56.71 33.40 55.49 38.00L55.46 37.97L55.38 37.89Q58.25 37.33 61.75 37.18L61.81 37.24L61.73 37.16Q65.67 36.99 67.46 34.56L67.43 34.52L67.43 34.53Q69.05 32.56 69.24 28.45L69.09 28.30L69.19 28.40Q69.24 26.62 68.78 24.91L68.70 24.83L68.67 24.79Q67.48 20.15 62.76 20.15ZM50.82 42.13L50.76 42.06L50.76 42.07Q53.63 36.36 53.63 29.66L53.75 29.78L53.69 29.72Q53.73 21.24 49.43 14.23L49.34 14.15L49.51 14.32Q54.70 16.92 62.96 17.11L62.95 17.10L62.97 17.12Q71.75 17.22 72.09 24.37L72.21 24.49L72.05 24.34Q72.33 27.20 72.29 28.65L72.23 28.59L72.28 28.63Q72.10 33.21 71.26 35.38L71.23 35.35L71.38 35.50Q70.87 36.52 70.11 37.35L70.04 37.28L70.11 37.35Q68.74 38.88 66.12 39.38L66.17 39.43L66.16 39.42Q64.50 39.62 61.49 39.85L61.57 39.93L61.63 39.99Q55.47 40.42 50.86 42.17ZM68.75 42.01L68.73 41.99L68.77 42.02Q71.57 41.74 73.21 40.26L73.21 40.26L73.19 40.25Q74.28 38.36 74.24 35.62L74.25 35.63L74.24 35.62Q74.25 34.26 74.10 30.76L74.26 30.92L73.71 26.18L73.74 26.21Q73.51 23.89 72.56 21.80L72.68 21.91L72.56 21.80Q72.15 20.97 71.46 20.32L71.39 20.25L71.48 20.18L71.46 20.16Q69.69 17.14 65.27 16.76L65.25 16.73L65.30 16.78Q62.56 16.59 55.55 15.87L55.60 15.91L55.56 15.88Q52.35 15.48 48.65 13.46L48.67 13.48L48.65 13.46Q53.58 20.94 53.58 29.70L53.49 29.60L53.50 29.62Q53.53 36.65 50.18 42.81L50.21 42.85L50.06 42.69Q50.78 42.47 52.11 41.97L52.24 42.09L52.18 42.04Q51.88 42.92 51.01 44.40L50.92 44.32L50.91 44.30Q54.07 43.35 57.42 42.86L57.36 42.80L57.28 42.72Q59.32 42.36 62.98 42.25L63.05 42.32L63.01 42.29Q67.02 42.30 68.85 42.11ZM68.81 28.41L68.82 28.41L68.72 28.31Q68.39 36.36 61.69 36.74L61.62 36.66L61.72 36.77Q59.74 36.84 57.68 37.11L57.75 37.18L57.75 37.18Q58.46 33.32 58.46 29.66L58.35 29.55L58.43 29.64Q58.34 25.85 57.62 22.00L57.69 22.08L57.76 22.15Q60.00 22.48 64.68 22.48L64.71 22.51L64.64 22.45Q66.05 22.33 67.69 23.28L67.67 23.27L67.68 23.27Q69.02 25.60 68.87 28.46Z"/><path fill="#222" d="M117.27 41.13L117.32 41.18L117.24 41.09Q120.43 36.86 127.13 28.94L127.19 29.01L127.19 29.01Q121.19 29.14 117.42 27.77L117.34 27.68L117.43 27.77Q116.84 26.42 116.08 25.01L115.94 24.87L116.08 25.01Q120.14 26.48 124.59 26.52L124.46 26.39L124.52 26.45Q129.04 26.56 133.23 25.49L133.28 25.54L133.10 25.36Q132.70 26.03 132.44 26.56L132.54 26.66L132.57 26.70Q129.94 28.82 127.12 32.44L127.18 32.50L122.36 38.79L122.18 38.61Q124.61 38.61 126.85 38.68L126.74 38.57L126.74 38.57Q128.86 38.56 131.11 38.94L131.20 39.03L131.27 39.10Q131.33 39.62 132.05 41.64L132.10 41.69L132.13 41.72Q128.26 40.74 124.26 40.85L124.31 40.90L124.42 41.01Q120.40 41.06 116.75 42.24L116.63 42.12L116.65 42.15Q116.84 42.10 117.29 41.15ZM116.16 42.83L116.14 42.81L116.19 42.87Q116.99 42.56 118.59 42.14L118.58 42.14L118.45 42.01Q118.25 42.26 117.83 42.68L117.87 42.72L117.89 42.74Q117.65 43.30 117.04 44.44L116.92 44.32L116.98 44.38Q121.67 43.02 126.66 43.17L126.66 43.17L126.66 43.17Q131.75 43.46 136.31 45.33L136.17 45.18L136.32 45.33Q134.81 43.40 133.90 41.35L133.92 41.37L133.89 41.34Q133.17 41.08 132.11 40.85L132.07 40.81L132.09 40.84Q131.91 40.12 131.53 38.68L131.46 38.61L131.45 38.59Q130.00 38.37 126.43 38.25L126.47 38.30L126.44 38.26Q128.76 34.88 133.78 28.52L133.79 28.53L133.85 28.59Q134.02 27.76 134.70 26.43L134.67 26.40L132.51 27.28L132.49 27.26Q132.58 27.20 132.73 27.09L132.71 27.06L132.84 26.81L132.79 26.76Q133.35 25.80 133.92 24.85L133.88 24.81L133.95 24.88Q129.31 26.26 124.59 26.18L124.57 26.16L124.44 26.03Q119.64 25.94 115.14 24.12L115.23 24.21L115.22 24.20Q116.35 26.01 117.15 28.07L117.17 28.08L117.12 28.03Q118.10 28.49 119.17 28.75L119.18 28.77L119.16 28.74Q119.38 29.45 119.68 30.90L119.66 30.88L119.61 30.82Q121.19 31.08 124.50 31.23L124.58 31.31L124.58 31.31Q122.11 34.54 116.93 40.98L116.89 40.94L116.98 41.02Q116.69 41.57 116.12 42.79Z"/><path fill="#444" d="M41.68 20.21L41.63 20.15L41.63 20.16Q37.26 20.09 33.57 19.10L33.61 19.14L33.64 19.17Q35.06 23.63 35.25 28.47L35.37 28.59L35.22 28.44Q35.49 33.31 34.27 37.92L34.26 37.91L34.17 37.82Q37.13 37.36 40.63 37.20L40.51 37.08L40.58 37.15Q44.42 36.88 46.21 34.44L46.28 34.52L46.32 34.56Q47.89 32.54 48.08 28.43L48.02 28.38L47.93 28.29Q48.02 26.54 47.56 24.83L47.70 24.97L47.68 24.95Q46.39 20.19 41.67 20.19ZM29.75 42.19L29.69 42.13L29.68 42.13Q32.54 36.42 32.54 29.72L32.50 29.68L32.52 29.70Q32.66 21.31 28.36 14.31L28.26 14.21L28.37 14.32Q33.52 16.88 41.78 17.07L41.76 17.05L41.78 17.07Q50.73 17.34 51.07 24.50L50.97 24.40L51.07 24.50Q51.17 27.19 51.13 28.63L50.98 28.48L51.01 28.51Q50.95 33.20 50.11 35.37L50.13 35.39L50.10 35.37Q49.75 36.54 48.99 37.38L49.06 37.44L48.95 37.34Q47.71 38.99 45.08 39.49L44.97 39.37L44.92 39.33Q43.33 39.60 40.32 39.83L40.46 39.96L40.48 39.99Q34.37 40.46 29.76 42.21ZM47.70 42.10L47.58 41.98L47.61 42.02Q50.28 41.60 51.92 40.11L52.00 40.20L51.99 40.19Q53.11 38.34 53.07 35.60L53.09 35.61L53.20 35.73Q53.26 34.41 53.11 30.91L53.00 30.81L52.69 26.31L52.61 26.23Q52.38 23.91 51.43 21.81L51.57 21.95L51.46 21.84Q50.97 20.93 50.29 20.29L50.37 20.37L50.35 20.20L50.35 20.20Q48.66 17.25 44.24 16.87L44.17 16.80L44.26 16.89Q41.42 16.59 34.41 15.87L34.50 15.95L34.45 15.91Q31.31 15.58 27.61 13.56L27.59 13.54L27.53 13.48Q32.36 20.86 32.36 29.61L32.28 29.54L32.38 29.63Q32.27 36.54 28.92 42.70L29.03 42.81L28.91 42.69Q29.70 42.52 31.03 42.03L30.97 41.97L30.92 41.92Q30.60 42.78 29.73 44.27L29.76 44.30L29.84 44.38Q32.83 43.26 36.18 42.77L36.12 42.70L36.29 42.87Q38.22 42.41 41.88 42.29L41.98 42.40L41.90 42.32Q45.77 42.19 47.60 42.00ZM47.73 28.47L47.66 28.40L47.70 28.43Q47.25 36.36 40.55 36.74L40.55 36.74L40.48 36.68Q38.57 36.82 36.51 37.08L36.67 37.23L36.48 37.05Q37.24 33.24 37.24 29.59L37.38 29.73L37.37 29.72Q37.29 25.94 36.57 22.10L36.49 22.02L36.49 22.02Q38.79 22.42 43.47 22.42L43.49 22.44L43.58 22.52Q44.92 22.34 46.56 23.30L46.56 23.30L46.44 23.18Q47.78 25.51 47.63 28.37Z"/></svg>