<svg xmlns="http://www.w3.org/2000/svg" width="150" height="50" viewBox="0,0,150,50"><path fill="#333" d="M84.16 32.22L74.88 22.18L74.76 22.06Q75.71 25.87 75.71 29.60L75.70 29.59L75.70 29.59Q75.67 35.54 73.62 41.09L73.69 41.17L73.70 41.18Q72.57 41.38 70.33 42.14L70.27 42.08L70.28 42.10Q73.05 36.26 73.05 29.56L73.18 29.69L73.19 29.70Q73.07 20.94 68.58 13.52L68.55 13.49L68.59 13.53Q69.08 13.75 69.77 14.17L69.66 14.06L69.71 14.12Q81.93 25.46 89.77 34.71L89.66 34.60L89.61 34.55Q89.33 32.14 89.33 29.70L89.48 29.85L89.33 29.70Q89.30 22.44 91.81 16.24L91.87 16.29L91.92 16.34Q94.19 15.76 95.79 15.07L95.91 15.19L95.82 15.10Q92.51 21.27 92.21 28.43L92.12 28.34L92.12 28.34Q91.99 35.86 94.96 42.03L94.96 42.03L94.94 42.01Q94.32 41.88 93.90 41.69L93.82 41.62L93.85 41.65Q89.23 37.63 84.01 32.08L84.05 32.11ZM97.57 45.21L97.60 45.24L97.54 45.18Q97.94 45.28 98.36 45.47L98.30 45.41L99.34 45.96L99.18 45.80Q94.06 38.88 94.06 29.52L94.13 29.59L94.01 29.47Q94.14 22.37 97.46 16.13L97.43 16.10L97.44 16.11Q96.73 16.28 95.32 16.89L95.40 16.96L95.39 16.96Q95.69 16.04 96.53 14.48L96.48 14.43L96.58 14.52Q94.09 15.39 91.66 15.96L91.58 15.89L91.54 15.85Q88.99 22.39 88.99 29.81L88.95 29.78L89.09 29.92Q89.10 31.79 89.29 33.77L89.25 33.73L89.24 33.72Q84.62 28.08 79.86 23.47L79.75 23.36L69.73 13.72L69.76 13.75Q69.04 13.29 67.82 12.72L67.87 12.77L67.97 12.88Q72.88 20.64 72.88 29.74L72.88 29.73L72.87 29.72Q72.79 36.76 69.70 42.78L69.62 42.69L69.78 42.86Q70.01 42.67 71.65 42.06L71.71 42.11L71.73 42.14Q71.25 42.76 70.41 44.25L70.58 44.41L70.59 44.42Q71.81 43.77 75.27 42.97L75.33 43.04L75.32 43.03Q77.63 36.88 77.63 29.69L77.63 29.69L77.67 29.73Q77.72 27.68 77.49 25.55L77.43 25.49L77.31 25.37Q88.89 38.28 97.49 45.14Z"/><path d="M4 14 C67 35,80 33,135 33" stroke="#333" fill="none"/><path fill="#222" d="M121.26 19.42L121.12 19.28L121.21 19.37Q122.13 23.68 122.28 27.26L122.13 27.10L122.29 27.26Q123.29 27.24 124.35 27.24L124.30 27.18L126.51 27.19L126.54 27.21Q127.65 27.25 128.52 25.85L128.56 25.89L128.43 25.76Q129.26 24.68 129.38 23.50L129.37 23.50L129.21 23.34Q129.75 20.49 125.52 19.99L125.44 19.91L125.49 19.95Q123.81 19.92 121.19 19.35ZM122.15 29.87L122.21 29.93L122.21 29.92Q122.18 36.18 121.04 40.59L121.08 40.63L121.03 40.59Q119.57 40.99 117.25 42.06L117.22 42.03L117.21 42.02Q119.70 35.49 119.43 28.22L119.31 28.10L119.38 28.17Q119.03 20.73 116.25 14.30L116.24 14.29L116.20 14.25Q120.47 17.15 126.71 17.15L126.60 17.03L126.61 17.04Q132.79 17.17 132.94 20.63L132.78 20.48L132.93 20.62Q132.83 22.89 131.84 25.55L132.03 25.74L131.90 25.60Q131.52 26.75 130.56 27.96L130.65 28.05L130.57 27.97Q129.24 29.57 126.69 29.84L126.71 29.86L126.72 29.87Q124.49 29.92 122.25 29.96ZM128.43 32.27L128.43 32.27L128.43 32.27Q132.47 32.39 133.73 27.59L133.83 27.69L133.85 27.71Q134.76 24.02 134.61 22.00L134.47 21.86L134.66 22.05Q134.49 20.47 133.73 19.48L133.76 19.51L133.65 19.41Q133.36 19.11 132.86 18.88L132.89 18.91L132.78 18.80Q132.82 18.68 132.21 17.92L132.30 18.02L132.33 18.05Q130.62 16.56 126.66 16.56L126.72 16.62L126.73 16.63Q119.89 16.68 115.66 13.52L115.62 13.48L115.61 13.47Q118.83 20.60 119.09 28.07L119.08 28.05L119.00 27.97Q119.43 35.79 116.77 42.87L116.66 42.76L116.70 42.80Q117.78 42.17 118.77 41.79L118.71 41.73L118.26 42.80L118.43 42.98Q118.10 43.41 117.84 43.98L117.81 43.95L117.88 44.02Q120.35 43.03 123.24 42.49L123.16 42.42L123.12 42.38Q124.08 36.98 124.16 32.26L124.23 32.33L124.12 32.22Q125.25 32.17 126.24 32.17L126.30 32.23L126.18 32.11Q127.61 32.20 128.41 32.24ZM127.47 22.32L127.32 22.17L127.46 22.31Q127.81 22.17 128.80 22.40L128.87 22.46L128.89 22.48Q128.98 22.69 129.02 22.99L129.06 23.03L129.06 23.03Q129.13 23.33 129.05 23.60L129.02 23.56L129.08 23.63Q128.86 24.74 128.14 25.61L128.12 25.60L128.14 25.62Q127.57 26.68 126.54 26.87L126.50 26.83L126.61 26.94Q125.85 26.90 124.21 26.90L124.17 26.86L124.15 26.84Q124.06 24.50 123.83 22.14L123.86 22.18L125.71 22.35L125.68 22.32Q126.43 22.24 127.31 22.16Z"/><path d="M18 6 C94 24,84 27,147 6" stroke="#666" fill="none"/><path fill="#333" d="M104.35 40.05L104.46 40.15L102.38 40.36L102.37 40.34Q101.83 40.27 100.86 40.32L100.83 40.29L100.99 40.45Q99.96 40.45 99.46 40.45L99.34 40.32L99.53 40.52Q97.78 40.40 96.75 39.57L96.74 39.55L96.71 39.53Q97.59 38.50 99.23 36.37L99.13 36.27L99.21 36.35Q100.38 37.82 102.59 37.60L102.73 37.73L102.63 37.64Q103.52 37.50 104.17 36.85L104.27 36.96L104.26 36.94Q104.93 36.32 104.81 35.44L104.75 35.38L104.79 35.42Q104.62 30.76 104.70 26.19L104.66 26.16L104.72 26.21Q104.70 21.55 105.23 16.94L105.39 17.10L105.33 17.04Q107.29 16.86 109.42 15.84L109.29 15.71L109.34 15.76Q107.47 22.49 107.47 29.72L107.50 29.76L107.54 29.79Q107.43 33.22 107.88 36.73L107.95 36.80L107.91 36.75Q107.97 37.08 107.97 37.42L108.14 37.59L108.13 37.58Q107.96 37.98 107.73 38.51L107.81 38.59L107.84 38.63Q107.17 39.78 104.35 40.04ZM109.40 43.00L109.44 43.04L109.72 42.97L109.93 42.77L110.19 42.65L110.28 42.74Q110.50 42.39 110.58 42.27L110.70 42.40L110.55 42.24Q110.83 41.16 110.56 40.17L110.61 40.22L110.61 40.21Q109.27 34.42 109.54 28.06L109.49 28.01L109.51 28.03Q109.62 21.79 111.41 15.89L111.60 16.07L111.57 16.05Q110.57 16.57 109.31 17.29L109.46 17.44L109.40 17.38Q109.62 16.64 110.03 15.12L109.95 15.04L109.92 15.01Q107.44 16.37 104.78 16.68L104.78 16.68L104.83 16.73Q104.52 21.18 104.44 26.12L104.41 26.09L104.41 26.09Q104.22 31.88 104.29 35.30L104.33 35.34L104.33 35.34Q104.43 37.15 102.67 37.30L102.57 37.20L102.69 37.32Q101.05 37.50 99.37 35.86L99.21 35.71L99.35 35.84Q97.17 38.23 96.21 39.79L96.18 39.75L96.20 39.78Q96.89 40.46 97.91 40.69L98.02 40.79L97.93 40.70Q97.95 40.95 97.69 41.18L97.60 41.10L97.66 41.15Q99.00 42.01 100.98 42.27L101.00 42.29L101.08 42.37Q101.35 42.30 104.65 42.61L104.79 42.75L104.64 42.60Q107.91 42.88 109.28 42.88Z"/><path fill="#222" d="M57.80 19.39L57.76 19.35L57.69 19.28Q58.54 23.51 58.69 27.09L58.69 27.10L58.80 27.20Q59.87 27.24 60.93 27.24L61.00 27.31L63.22 27.32L63.06 27.16Q64.21 27.25 65.09 25.84L64.98 25.74L65.07 25.82Q65.73 24.58 65.85 23.40L65.83 23.38L65.97 23.52Q66.29 20.45 62.06 19.96L62.09 19.99L62.04 19.94Q60.33 19.86 57.70 19.29ZM58.85 29.99L58.89 30.03L58.78 29.93Q58.75 36.18 57.61 40.59L57.68 40.66L57.65 40.63Q56.05 40.90 53.73 41.97L53.73 41.97L53.89 42.13Q56.15 35.37 55.88 28.09L55.90 28.11L55.97 28.18Q55.62 20.75 52.84 14.32L52.77 14.24L52.92 14.39Q56.93 17.04 63.18 17.04L63.13 16.99L63.31 17.17Q69.32 17.13 69.47 20.60L69.49 20.61L69.36 20.48Q69.57 23.05 68.58 25.71L68.60 25.74L68.41 25.55Q68.07 26.73 67.11 27.94L67.18 28.00L67.16 27.99Q65.86 29.62 63.31 29.89L63.25 29.83L63.36 29.94Q61.13 29.99 58.88 30.03ZM64.93 32.20L64.92 32.18L64.85 32.11Q69.08 32.42 70.34 27.62L70.41 27.70L70.29 27.57Q71.37 24.05 71.22 22.04L71.17 21.99L71.19 22.01Q70.96 20.37 70.20 19.38L70.17 19.35L70.19 19.37Q69.99 19.17 69.50 18.95L69.37 18.82L69.49 18.94Q69.50 18.79 68.89 18.03L68.90 18.04L68.83 17.97Q67.27 16.64 63.32 16.64L63.26 16.59L63.39 16.72Q56.38 16.60 52.16 13.44L52.15 13.44L52.27 13.55Q55.34 20.55 55.61 28.01L55.58 27.99L55.59 28.00Q55.84 35.63 53.18 42.71L53.30 42.83L53.31 42.84Q54.38 42.20 55.37 41.82L55.35 41.80L54.88 42.85L54.87 42.84Q54.72 43.45 54.45 44.03L54.41 43.98L54.40 43.97Q56.92 43.03 59.81 42.49L59.87 42.55L59.79 42.47Q60.70 37.02 60.78 32.30L60.62 32.15L60.62 32.15Q61.76 32.11 62.75 32.11L62.75 32.11L62.87 32.23Q64.08 32.10 64.88 32.14ZM64.03 22.31L63.99 22.26L63.90 22.17Q64.39 22.18 65.38 22.41L65.52 22.54L65.53 22.55Q65.60 22.74 65.64 23.04L65.65 23.06L65.70 23.11Q65.73 23.36 65.66 23.63L65.66 23.63L65.61 23.58Q65.52 24.83 64.80 25.70L64.65 25.56L64.73 25.63Q64.27 26.81 63.24 27.00L63.21 26.97L63.13 26.89Q62.40 26.88 60.76 26.88L60.84 26.96L60.84 26.96Q60.74 24.61 60.51 22.25L60.48 22.22L62.13 22.20L62.28 22.35Q63.16 22.39 64.04 22.32Z"/><path fill="#333" d="M41.63 20.16L41.61 20.14L41.52 20.05Q37.22 20.04 33.52 19.06L33.55 19.09L33.65 19.18Q35.07 23.65 35.26 28.49L35.21 28.43L35.19 28.42Q35.54 33.36 34.32 37.97L34.23 37.88L34.34 37.99Q37.06 37.28 40.56 37.13L40.57 37.14L40.64 37.21Q44.43 36.89 46.22 34.45L46.21 34.45L46.31 34.54Q47.84 32.50 48.03 28.39L48.05 28.41L48.05 28.41Q48.01 26.54 47.55 24.82L47.59 24.86L47.62 24.89Q46.32 20.12 41.60 20.12ZM29.61 42.05L29.77 42.22L29.71 42.15Q32.54 36.42 32.54 29.72L32.58 29.76L32.60 29.78Q32.52 21.17 28.22 14.17L28.22 14.17L28.37 14.32Q33.52 16.88 41.78 17.07L41.81 17.10L41.73 17.02Q50.69 17.30 51.03 24.46L50.96 24.38L50.91 24.34Q51.14 27.16 51.10 28.60L51.02 28.52L51.03 28.53Q51.08 33.33 50.24 35.50L50.07 35.33L50.15 35.41Q49.78 36.57 49.02 37.41L49.07 37.46L48.97 37.35Q47.53 38.81 44.90 39.30L45.03 39.43L44.94 39.34Q43.40 39.67 40.40 39.90L40.48 39.98L40.51 40.02Q34.19 40.28 29.59 42.03ZM47.71 42.11L47.64 42.04L47.59 41.99Q50.34 41.66 51.98 40.17L51.94 40.14L51.91 40.10Q53.09 38.32 53.05 35.58L53.07 35.60L53.17 35.69Q53.27 34.42 53.12 30.92L52.94 30.74L52.61 26.22L52.56 26.18Q52.50 24.02 51.55 21.92L51.57 21.95L51.41 21.79Q50.98 20.94 50.30 20.29L50.26 20.26L50.22 20.07L50.21 20.06Q48.70 17.30 44.29 16.91L44.17 16.79L44.27 16.90Q41.49 16.67 34.48 15.94L34.46 15.92L34.50 15.96Q31.28 15.55 27.59 13.54L27.54 13.49L27.59 13.54Q32.35 20.86 32.35 29.61L32.27 29.53L32.25 29.51Q32.33 36.59 28.98 42.76L29.01 42.79L29.00 42.78Q29.68 42.51 31.01 42.01L30.96 41.96L30.95 41.95Q30.58 42.76 29.70 44.24L29.72 44.26L29.86 44.40Q32.80 43.23 36.15 42.74L36.17 42.75L36.27 42.85Q38.30 42.48 41.95 42.37L41.92 42.34L41.94 42.35Q45.85 42.27 47.68 42.08ZM47.75 28.48L47.75 28.48L47.59 28.33Q47.35 36.46 40.65 36.84L40.52 36.71L40.56 36.75Q38.64 36.88 36.58 37.15L36.51 37.08L36.65 37.22Q37.28 33.28 37.28 29.62L37.27 29.62L37.27 29.62Q37.34 25.99 36.62 22.15L36.56 22.09L36.45 21.98Q38.73 22.36 43.42 22.36L43.54 22.48L43.42 22.36Q44.89 22.31 46.52 23.26L46.59 23.33L46.52 23.25Q47.75 25.48 47.60 28.33Z"/><path fill="#444" d="M27.53 41.50L27.56 41.53L27.62 41.58Q25.52 41.20 23.35 41.04L23.35 41.04L23.36 41.05Q21.86 39.56 19.20 35.71L19.30 35.81L19.15 35.67Q16.97 38.78 14.57 41.21L14.68 41.32L12.51 41.63L12.55 41.66Q11.45 41.83 10.46 42.09L10.46 42.09L10.51 42.14Q14.63 37.96 17.64 33.85L17.67 33.88L17.72 33.93Q14.46 29.76 9.06 24.96L8.96 24.86L8.95 24.85Q11.23 25.65 13.94 26.07L13.90 26.04L13.96 26.10Q17.35 29.14 19.25 31.85L19.24 31.83L19.24 31.83Q21.35 28.77 24.09 26.26L24.15 26.32L24.19 26.36Q27.11 25.89 28.94 25.39L29.02 25.47L29.00 25.45Q24.38 29.01 20.68 33.58L20.86 33.76L20.76 33.66Q24.21 38.40 27.67 41.64ZM30.42 24.67L30.48 24.72L30.53 24.77Q27.51 25.49 23.97 25.83L23.95 25.81L23.98 25.84Q21.05 28.47 19.34 30.94L19.50 31.10L19.48 31.08Q18.56 30.01 16.92 28.03L16.90 28.01L16.70 28.00L16.79 28.09Q16.60 28.01 16.49 28.01L16.47 27.99L16.35 27.88Q15.67 27.12 14.04 25.68L14.01 25.65L14.11 25.76Q10.42 25.11 7.57 23.89L7.60 23.92L7.57 23.89Q13.08 28.68 17.12 33.82L17.16 33.86L17.17 33.88Q13.85 38.55 9.44 42.85L9.37 42.78L9.31 42.73Q9.63 42.70 13.13 41.86L13.21 41.95L13.12 41.85Q11.58 43.17 9.95 44.51L9.95 44.51L9.99 44.55Q13.12 43.57 16.28 43.38L16.26 43.36L16.42 43.52Q18.81 41.26 20.71 38.52L20.64 38.45L20.56 38.37Q22.05 40.20 23.27 41.38L23.32 41.44L23.19 41.30Q23.30 41.30 23.38 41.38L23.47 41.47L23.72 41.53L23.66 41.47Q24.88 42.54 26.21 43.61L26.16 43.55L26.25 43.64Q29.78 44.13 32.68 45.16L32.71 45.19L32.68 45.16Q26.54 40.74 22.85 35.56L22.93 35.64L22.91 35.62Q26.46 30.49 31.03 26.42L31.02 26.41L31.12 26.50Q30.03 26.71 29.04 26.93L29.17 27.07L27.05 27.42L27.07 27.45Q28.21 26.49 30.38 24.62Z"/></svg>