<svg xmlns="http://www.w3.org/2000/svg" width="150" height="50" viewBox="0,0,150,50"><path fill="#333" d="M122.84 32.14L113.58 22.12L113.67 22.20Q114.48 25.87 114.48 29.60L114.51 29.64L114.44 29.56Q114.39 35.49 112.34 41.05L112.41 41.13L112.35 41.07Q111.34 41.38 109.09 42.15L109.17 42.23L108.99 42.05Q111.87 36.32 111.87 29.62L111.87 29.62L111.94 29.69Q111.82 20.93 107.33 13.50L107.41 13.59L107.35 13.52Q107.87 13.78 108.55 14.20L108.57 14.22L108.56 14.21Q120.52 25.29 128.36 34.54L128.54 34.72L128.41 34.59Q128.19 32.23 128.19 29.80L128.05 29.66L128.17 29.78Q128.24 22.61 130.75 16.41L130.64 16.30L130.67 16.33Q133.00 15.80 134.60 15.12L134.65 15.17L134.57 15.09Q131.24 21.24 130.93 28.39L131.00 28.46L131.04 28.50Q130.73 35.84 133.70 42.01L133.54 41.85L133.70 42.01Q133.00 41.81 132.58 41.62L132.68 41.71L132.67 41.71Q128.17 37.81 122.95 32.25L122.89 32.19ZM136.26 45.14L136.31 45.19L136.34 45.23Q136.69 45.26 137.11 45.45L137.07 45.42L138.06 45.91L138.00 45.85Q132.89 38.96 132.89 29.59L132.80 29.50L132.83 29.53Q132.78 22.25 136.09 16.00L136.06 15.97L136.06 15.97Q135.51 16.30 134.11 16.91L134.19 16.99L134.18 16.98Q134.48 16.06 135.31 14.50L135.26 14.45L135.30 14.49Q132.91 15.45 130.47 16.02L130.49 16.04L130.35 15.89Q127.68 22.32 127.68 29.75L127.68 29.74L127.72 29.78Q127.85 31.78 128.04 33.76L128.05 33.77L127.89 33.61Q123.23 27.92 118.47 23.31L118.57 23.42L108.46 13.69L108.52 13.75Q107.94 13.43 106.72 12.86L106.64 12.78L106.77 12.91Q111.55 20.55 111.55 29.65L111.55 29.65L111.63 29.72Q111.61 36.82 108.53 42.84L108.56 42.87L108.42 42.73Q108.73 42.63 110.37 42.02L110.43 42.08L110.40 42.04Q110.12 42.87 109.28 44.35L109.19 44.26L109.22 44.29Q110.57 43.77 114.03 42.97L114.14 43.09L114.04 42.99Q116.44 36.93 116.44 29.73L116.35 29.65L116.39 29.69Q116.29 27.50 116.06 25.36L116.23 25.52L116.21 25.51Q127.72 38.35 136.32 45.20Z"/><path fill="#444" d="M67.18 32.97L67.21 33.00L67.13 32.92Q70.19 32.52 73.39 32.63L73.47 32.71L73.53 32.77Q73.45 30.18 73.45 27.78L73.47 27.80L73.45 27.78Q73.49 25.35 73.68 22.80L73.61 22.73L73.57 22.69Q72.36 24.40 67.14 32.93ZM77.13 40.37L77.00 40.24L77.07 40.31Q75.38 39.99 73.59 39.91L73.51 39.83L73.62 39.94Q73.31 37.46 73.20 34.99L73.20 34.99L73.34 35.14Q68.01 34.94 63.29 36.35L63.18 36.24L63.18 36.24Q63.28 35.73 63.47 34.74L63.49 34.76L63.46 34.74Q65.36 31.69 68.94 25.40L68.96 25.42L68.89 25.35Q71.74 20.44 75.17 16.56L75.18 16.57L75.15 16.54Q76.08 16.40 77.76 16.14L77.83 16.21L77.71 16.09Q75.92 22.64 75.92 29.68L75.83 29.59L75.85 29.61Q75.90 31.15 75.98 32.63L75.97 32.62L77.35 32.82L77.28 32.75Q77.76 32.67 78.37 32.78L78.49 32.89L78.37 32.78Q78.63 33.92 78.90 35.86L78.94 35.90L78.80 35.76Q77.63 35.54 76.15 35.35L76.08 35.29L76.23 35.43Q76.32 37.31 77.01 40.25ZM78.64 32.40L78.83 32.59L78.76 32.52Q78.51 32.39 78.32 32.39L78.43 32.49L77.98 32.43L77.92 32.37Q77.92 30.99 77.92 29.58L77.87 29.53L77.86 29.53Q77.92 23.19 79.98 17.18L79.91 17.11L79.90 17.10Q79.22 17.45 77.77 17.83L77.78 17.83L77.66 17.72Q77.98 17.05 78.44 15.64L78.33 15.53L78.35 15.55Q77.14 16.02 75.09 16.25L75.03 16.19L75.06 16.22Q71.17 20.59 65.95 29.95L65.84 29.84L67.91 26.17L68.09 26.34Q67.67 27.37 67.41 27.94L67.29 27.83L62.81 36.82L62.89 36.90Q63.59 36.80 64.73 36.42L64.72 36.41L64.42 36.49L64.56 36.63Q64.45 37.32 64.14 38.57L64.14 38.57L64.09 38.52Q68.27 37.26 73.11 37.45L72.96 37.30L73.10 37.45Q73.00 38.26 73.19 40.24L73.33 40.37L73.33 40.38Q74.35 40.33 75.41 40.44L75.40 40.43L75.41 40.44Q75.56 41.12 75.82 42.49L75.78 42.44L75.77 42.44Q77.71 42.70 80.72 43.61L80.73 43.63L80.77 43.67Q79.81 41.57 78.90 38.29L78.88 38.27L80.24 38.64L80.26 38.67Q80.85 38.80 81.53 39.14L81.73 39.33L81.57 39.18Q80.89 36.78 80.74 35.11L80.75 35.12L80.77 35.14Q80.07 34.85 78.92 34.63L78.88 34.58L79.01 34.71Q78.83 33.47 78.83 32.59ZM70.66 32.26L70.67 32.27L70.82 32.42Q71.50 31.05 73.06 28.50L73.05 28.49L73.02 28.45Q73.09 29.47 73.05 30.43L73.10 30.48L73.06 30.43Q73.11 31.48 73.15 32.43L72.98 32.26L73.10 32.38Q72.48 32.29 71.91 32.29L72.02 32.40L71.89 32.27Q71.39 32.39 70.78 32.39Z"/><path d="M19 37 C94 43,83 11,142 43" stroke="#555" fill="none"/><path fill="#222" d="M91.78 32.90L91.88 33.01L91.89 33.01Q94.92 32.58 98.12 32.69L98.02 32.59L98.10 32.67Q98.02 30.08 98.02 27.68L98.11 27.78L97.98 27.64Q98.08 25.27 98.27 22.72L98.32 22.76L98.35 22.80Q97.03 24.41 91.81 32.93ZM101.78 40.35L101.80 40.37L101.66 40.24Q100.14 40.08 98.35 40.00L98.29 39.95L98.19 39.85Q98.14 37.63 98.03 35.16L98.04 35.17L98.01 35.14Q92.61 34.88 87.89 36.29L87.88 36.28L87.98 36.38Q88.10 35.89 88.29 34.90L88.18 34.79L88.20 34.81Q89.92 31.57 93.49 25.29L93.66 25.45L93.51 25.31Q96.54 20.57 99.97 16.69L99.81 16.53L99.92 16.64Q100.76 16.42 102.44 16.15L102.54 16.26L102.37 16.08Q100.62 22.67 100.62 29.71L100.53 29.63L100.56 29.66Q100.62 31.20 100.69 32.68L100.53 32.51L101.87 32.67L102.01 32.82Q102.52 32.76 103.13 32.87L103.10 32.84L103.07 32.81Q103.25 33.86 103.51 35.80L103.53 35.82L103.62 35.91Q102.35 35.59 100.86 35.40L100.73 35.27L100.84 35.38Q101.09 37.42 101.78 40.35ZM103.33 32.43L103.38 32.47L103.45 32.54Q103.12 32.33 102.93 32.33L103.09 32.49L102.61 32.39L102.66 32.43Q102.59 30.99 102.59 29.59L102.55 29.55L102.44 29.44Q102.58 23.18 104.63 17.17L104.53 17.07L104.59 17.13Q103.92 17.48 102.47 17.86L102.46 17.85L102.32 17.71Q102.56 16.95 103.01 15.55L102.97 15.50L103.12 15.66Q101.78 15.99 99.73 16.22L99.65 16.15L99.68 16.17Q95.84 20.59 90.62 29.96L90.57 29.91L92.57 26.16L92.72 26.30Q92.26 27.29 91.99 27.86L91.92 27.79L87.58 36.93L87.46 36.81Q88.13 36.68 89.28 36.30L89.39 36.42L89.13 36.53L89.17 36.57Q89.08 37.29 88.78 38.55L88.74 38.51L88.77 38.53Q92.90 37.22 97.73 37.41L97.68 37.36L97.68 37.36Q97.80 38.39 97.99 40.37L97.88 40.26L98.00 40.38Q98.91 40.22 99.98 40.34L100.15 40.51L100.14 40.50Q100.22 41.12 100.49 42.49L100.52 42.52L100.42 42.41Q102.35 42.67 105.36 43.59L105.45 43.68L105.48 43.71Q104.34 41.43 103.43 38.15L103.51 38.24L104.99 38.73L105.02 38.76Q105.58 38.86 106.26 39.20L106.27 39.21L106.30 39.24Q105.59 36.82 105.44 35.14L105.36 35.06L105.37 35.07Q104.78 34.90 103.64 34.68L103.59 34.62L103.72 34.75Q103.47 33.44 103.47 32.56ZM95.49 32.43L95.35 32.29L95.36 32.29Q96.08 30.96 97.64 28.41L97.77 28.54L97.69 28.46Q97.68 29.40 97.64 30.35L97.66 30.37L97.76 30.47Q97.75 31.45 97.79 32.40L97.65 32.26L97.79 32.41Q97.07 32.22 96.50 32.22L96.62 32.33L96.58 32.29Q95.92 32.25 95.32 32.25Z"/><path d="M16 44 C92 20,70 26,147 19" stroke="#333" fill="none"/><path fill="#444" d="M26.03 29.52L26.10 29.59L25.93 29.42Q24.73 28.65 24.09 28.68L24.10 28.70L24.27 28.87Q22.76 28.81 21.71 29.81L21.79 29.89L21.66 29.76Q20.78 30.93 20.89 32.30L20.85 32.26L20.87 32.29Q21.04 36.49 20.16 41.02L20.33 41.18L20.31 41.16Q17.99 41.51 16.89 42.04L17.00 42.15L16.92 42.07Q18.48 37.97 18.26 33.51L18.13 33.38L18.26 33.51Q18.05 29.04 16.34 24.97L16.33 24.97L16.24 24.87Q17.42 25.60 19.71 26.25L19.64 26.18L20.20 28.87L20.17 28.84Q20.93 26.03 25.20 26.03L25.27 26.10L25.14 25.96Q25.61 25.98 25.92 25.98L25.86 25.92L25.98 26.04Q27.14 25.91 28.40 26.60L28.45 26.65L28.48 26.69Q27.19 28.05 26.04 29.54ZM27.63 31.50L27.67 31.39L27.65 31.37Q28.58 30.25 30.26 27.81L30.25 27.80L30.29 27.84Q29.78 27.45 28.26 27.19L28.34 27.26L28.22 27.15Q28.70 26.98 29.16 26.37L29.15 26.36L29.18 26.39Q27.26 25.46 25.32 25.65L25.29 25.62L25.30 25.63Q23.25 25.72 22.53 25.98L22.59 26.05L22.64 26.10Q21.09 26.37 20.29 27.47L20.29 27.48L20.11 26.65L20.02 25.91L20.04 25.93Q17.60 25.47 15.62 24.13L15.61 24.13L15.56 24.08Q17.68 28.45 17.91 33.32L17.96 33.37L17.89 33.30Q18.21 38.31 16.46 42.84L16.45 42.82L16.45 42.82Q17.45 42.26 18.32 41.95L18.46 42.10L18.40 42.03Q18.06 43.06 17.56 44.12L17.58 44.14L17.65 44.22Q20.56 43.43 22.69 43.31L22.59 43.21L22.72 38.62L22.90 38.80Q22.82 36.36 22.82 34.12L22.88 34.18L22.92 34.21Q22.96 33.08 23.87 32.10L23.89 32.13L23.77 32.01Q24.72 31.07 25.86 30.99L25.88 31.01L25.89 31.02Q26.54 30.91 27.26 31.59L27.14 31.47L27.54 31.42ZM22.56 29.63L22.73 29.73L22.63 29.74L22.52 29.60Z"/><path fill="#333" d="M47.96 40.04L48.00 40.07L45.93 40.29L45.97 40.33Q45.41 40.22 44.44 40.28L44.62 40.46L44.57 40.41Q43.58 40.45 43.08 40.45L43.04 40.40L43.02 40.39Q41.47 40.47 40.44 39.63L40.48 39.68L40.31 39.50Q41.19 38.48 42.83 36.35L42.77 36.29L42.79 36.31Q44.11 37.93 46.31 37.70L46.19 37.58L46.34 37.73Q47.16 37.52 47.81 36.87L47.82 36.89L47.84 36.91Q48.58 36.35 48.46 35.47L48.36 35.37L48.30 35.31Q48.25 30.77 48.33 26.20L48.27 26.14L48.31 26.18Q48.39 21.62 48.92 17.01L48.94 17.03L48.97 17.06Q50.80 16.76 52.93 15.73L53.02 15.82L53.03 15.83Q51.15 22.55 51.15 29.79L51.08 29.72L51.11 29.75Q51.15 33.32 51.60 36.82L51.50 36.73L51.48 36.70Q51.63 37.12 51.63 37.46L51.66 37.50L51.67 37.50Q51.66 38.06 51.43 38.60L51.33 38.50L51.46 38.62Q50.89 39.88 48.07 40.15ZM53.02 43.00L53.03 43.01L53.42 43.06L53.58 42.80L53.89 42.73L53.84 42.68Q54.19 42.45 54.26 42.34L54.29 42.37L54.28 42.36Q54.34 41.04 54.07 40.05L54.16 40.15L54.18 40.16Q52.89 34.42 53.16 28.06L53.01 27.92L53.20 28.10Q53.42 21.97 55.21 16.07L55.02 15.88L55.08 15.93Q54.18 16.56 52.92 17.28L52.99 17.35L52.90 17.26Q53.20 16.61 53.62 15.09L53.67 15.13L53.63 15.10Q50.99 16.30 48.32 16.60L48.45 16.73L48.43 16.71Q48.17 21.21 48.09 26.16L47.90 25.97L47.92 25.98Q47.85 31.89 47.93 35.32L47.97 35.36L48.10 35.49Q48.04 37.15 46.29 37.30L46.21 37.22L46.38 37.39Q44.50 37.34 42.83 35.70L42.96 35.84L42.85 35.73Q40.92 38.36 39.96 39.92L39.90 39.86L39.84 39.80Q40.62 40.57 41.65 40.80L41.47 40.62L41.59 40.74Q41.54 40.93 41.28 41.16L41.20 41.08L41.14 41.02Q42.57 41.96 44.55 42.22L44.61 42.28L44.57 42.24Q44.98 42.30 48.27 42.61L48.30 42.64L48.36 42.70Q51.71 43.06 53.08 43.06Z"/></svg>