<svg xmlns="http://www.w3.org/2000/svg" width="150" height="50" viewBox="0,0,150,50"><path fill="#333" d="M97.81 30.01L97.67 29.86L97.75 29.95Q95.16 29.75 93.83 30.97L93.77 30.91L93.78 30.92Q92.42 32.11 92.72 34.62L92.73 34.63L92.75 34.66Q93.13 37.24 94.35 38.50L94.29 38.44L94.35 38.50Q95.50 39.92 97.63 39.84L97.53 39.74L97.57 39.78Q98.13 39.77 98.32 39.77L98.30 39.75L98.31 39.76Q101.73 39.03 101.85 34.42L101.84 34.42L101.89 34.46Q102.07 32.21 101.39 31.41L101.25 31.28L101.30 31.33Q100.21 30.01 97.66 29.86ZM101.03 41.64L100.97 41.57L101.12 41.73Q99.62 42.14 98.06 42.06L98.15 42.15L98.18 42.18Q94.35 42.38 93.05 39.79L93.08 39.82L93.13 39.87Q92.84 45.10 91.51 49.36L91.58 49.43L91.60 49.46Q89.81 49.95 88.18 50.68L88.12 50.62L88.00 50.49Q90.64 44.61 90.38 37.65L90.41 37.68L90.44 37.72Q90.14 30.82 87.24 24.77L87.33 24.86L87.33 24.86Q89.25 26.02 90.97 26.48L90.92 26.43L91.45 27.91L91.45 27.91Q91.46 28.15 91.73 29.25L91.85 29.38L91.69 29.21Q92.87 27.32 96.45 27.13L96.40 27.07L96.32 27.00Q97.34 27.10 98.22 27.10L98.10 26.98L98.65 27.04L98.66 27.05Q98.83 27.11 99.02 27.14L98.98 27.10L99.22 27.04L99.25 27.06Q101.31 27.34 102.03 27.56L101.97 27.51L102.12 27.66Q103.47 27.97 104.34 28.92L104.34 28.92L104.49 29.07Q105.24 30.17 105.20 31.57L105.31 31.68L105.13 31.50Q105.29 34.51 104.49 37.18L104.41 37.10L104.34 37.03Q103.35 40.57 100.99 41.60ZM105.23 42.19L105.19 42.11L105.32 42.24Q106.49 40.33 106.80 36.22L106.75 36.17L106.78 36.20Q106.77 34.28 106.77 33.03L106.83 33.09L106.89 33.15Q106.80 31.53 106.04 30.12L106.05 30.14L106.10 30.19Q105.65 29.70 105.16 29.32L105.10 29.26L104.93 28.98L104.88 28.82L104.88 28.70L104.71 28.54Q103.11 26.62 98.77 26.62L98.80 26.66L98.10 26.57L98.09 26.55Q93.54 26.65 91.91 28.25L91.81 28.16L91.93 28.27Q91.59 27.59 91.44 27.10L91.58 27.25L91.32 26.18L91.20 26.06Q88.81 25.54 86.60 24.05L86.64 24.09L86.58 24.03Q89.84 30.34 90.15 37.57L90.15 37.58L90.02 37.44Q90.44 44.83 87.59 51.30L87.51 51.23L89.52 50.38L89.49 50.35Q89.19 51.04 88.50 52.60L88.63 52.73L88.58 52.68Q91.32 51.65 93.64 51.30L93.69 51.35L93.52 51.18Q94.63 46.36 94.79 42.63L94.88 42.72L94.81 42.65Q96.24 44.15 99.85 44.38L99.89 44.42L99.90 44.43Q103.86 44.69 105.30 42.26L105.34 42.30ZM99.60 32.13L99.61 32.15L99.57 32.11Q100.24 32.05 101.34 32.40L101.45 32.51L101.27 32.33Q101.70 33.48 101.66 34.66L101.58 34.58L101.64 34.64Q101.59 35.50 101.40 36.15L101.36 36.10L101.37 36.11Q100.73 39.09 98.21 39.39L98.18 39.36L98.24 39.30L98.38 39.44Q98.12 39.26 98.01 39.30L98.16 39.45L97.57 39.40L97.63 39.46Q96.48 39.49 95.49 38.99L95.45 38.96L94.98 36.77L95.09 36.87Q94.91 34.53 96.20 33.50L96.19 33.49L96.24 33.54Q97.21 32.41 99.61 32.15Z"/><path fill="#333" d="M121.91 40.10L121.98 40.17L122.05 40.24Q120.19 40.17 118.52 40.74L118.55 40.77L118.44 40.66Q119.02 37.09 119.13 33.97L119.21 34.04L119.11 33.95Q119.29 30.97 119.06 27.31L118.91 27.16L118.97 27.23Q117.57 26.85 116.81 26.47L116.75 26.41L116.53 23.57L116.54 23.57Q117.28 24.20 118.88 24.77L118.77 24.66L118.84 24.73Q118.52 22.51 118.10 19.77L118.06 19.73L118.07 19.74Q120.54 20.61 122.18 20.45L122.17 20.45L121.88 24.88L121.86 24.86Q123.40 24.91 124.73 24.41L124.80 24.49L124.63 24.32Q124.74 25.38 124.51 27.13L124.52 27.14L124.48 27.10Q122.97 27.46 121.94 27.46L121.85 27.36L121.95 27.46Q121.89 29.57 121.89 33.83L121.98 33.93L121.90 33.84Q121.84 37.94 121.92 40.11ZM125.07 23.77L125.14 23.84L125.05 23.75Q124.92 24.00 124.31 24.22L124.17 24.08L124.56 21.32L124.62 21.38Q123.77 21.63 122.36 21.86L122.42 21.91L122.40 21.89Q122.42 21.23 122.57 19.86L122.53 19.81L122.65 19.94Q122.00 19.97 121.43 19.97L121.31 19.86L121.49 20.03Q119.23 19.91 117.59 19.18L117.64 19.23L117.57 19.16Q118.19 21.76 118.45 24.23L118.30 24.08L118.39 24.17Q117.47 23.78 115.95 22.75L116.06 22.86L115.98 22.78Q116.31 24.07 116.54 26.77L116.52 26.75L116.65 26.89Q117.11 27.11 118.29 27.53L118.28 27.52L118.12 27.36Q118.21 28.06 118.25 29.47L118.31 29.53L118.63 29.51L118.81 29.61L118.71 29.51Q118.74 30.72 118.74 31.90L118.73 31.89L118.87 32.04Q118.81 36.92 118.01 41.26L118.06 41.31L118.01 41.26Q118.11 41.05 120.05 40.52L120.04 40.51L120.06 40.54Q120.26 41.38 120.14 42.75L120.01 42.61L119.99 42.59Q120.79 42.52 121.59 42.52L121.69 42.62L121.64 42.57Q123.43 42.64 125.06 43.21L125.09 43.24L125.01 43.16Q123.70 37.47 123.89 29.56L123.85 29.51L126.33 29.21L126.21 29.10Q126.30 28.20 126.38 27.17L126.42 27.21L126.51 25.09L126.64 25.22Q126.02 25.44 124.84 25.90L124.77 25.83L124.87 25.93Q125.15 24.58 125.08 24.23L124.99 24.15L125.17 24.32Q125.05 24.02 125.13 23.83Z"/><path fill="#333" d="M30.42 40.42L30.46 40.46L30.33 40.33Q27.45 36.54 24.82 27.90L24.84 27.92L24.88 27.95Q24.18 25.77 23.38 23.64L23.24 23.49L20.41 32.31L20.37 32.27Q18.71 37.35 16.31 40.59L16.17 40.45L16.17 40.45Q15.30 40.49 13.66 40.64L13.83 40.81L13.64 40.62Q13.76 39.45 13.76 38.20L13.95 38.39L13.82 38.26Q13.88 32.29 11.14 26.17L11.12 26.14L11.05 26.08Q8.00 19.26 2.14 14.27L2.22 14.35L2.12 14.25Q4.17 14.86 6.53 15.39L6.57 15.43L6.64 15.50Q15.40 24.03 16.70 35.00L16.63 34.94L16.68 34.98Q18.19 31.54 19.63 26.17L19.72 26.26L19.62 26.16Q21.70 18.76 22.20 17.35L22.10 17.25L24.37 17.28L24.49 17.40Q25.03 19.27 25.67 21.59L25.80 21.71L27.00 26.11L27.08 26.20Q28.63 31.63 30.04 34.86L29.92 34.75L29.95 34.78Q31.61 23.15 39.53 15.80L39.61 15.88L39.54 15.81Q41.15 15.55 44.12 14.91L43.96 14.75L44.07 14.86Q38.70 19.12 35.65 25.25L35.75 25.35L35.67 25.26Q32.55 31.47 32.55 38.25L32.59 38.29L32.58 38.28Q32.54 39.35 32.62 40.49L32.75 40.62L31.44 40.34L31.50 40.40Q31.04 40.47 30.47 40.47ZM36.69 43.34L36.58 43.23L36.60 43.26Q35.37 39.70 35.48 35.82L35.56 35.89L35.48 35.82Q35.75 24.20 45.11 15.94L45.25 16.08L45.25 16.08Q44.32 16.33 42.38 16.87L42.27 16.76L42.22 16.71Q43.17 15.87 45.08 14.08L45.15 14.15L45.15 14.15Q42.49 14.91 39.55 15.41L39.45 15.31L39.61 15.46Q31.99 22.46 30.08 31.94L30.18 32.04L30.06 31.92Q29.61 30.40 26.75 18.94L26.70 18.88L26.76 18.95Q26.27 18.95 25.32 18.95L25.39 19.02L24.98 17.85L25.10 17.98Q24.90 17.36 24.67 16.86L24.75 16.94L21.88 16.96L21.74 16.82Q21.07 19.42 19.79 24.54L19.64 24.39L19.62 24.37Q18.37 29.51 17.38 31.99L17.41 32.02L17.36 31.97Q15.79 24.08 10.23 17.76L10.41 17.94L10.27 17.80Q9.84 17.79 8.89 17.60L8.84 17.55L8.80 17.50Q8.08 16.67 6.52 15.04L6.50 15.02L6.55 15.07Q3.12 14.22 0.95 13.43L0.93 13.41L1.06 13.54Q6.67 18.16 9.95 24.37L9.90 24.32L9.95 24.37Q13.51 31.09 13.51 38.09L13.49 38.08L13.39 37.98Q13.47 39.62 13.28 41.22L13.15 41.08L13.22 41.16Q13.39 41.09 13.84 41.00L14.02 41.17L14.03 41.18Q14.46 41.06 14.69 41.06L14.71 41.08L14.60 42.01L14.67 42.07Q14.71 42.57 14.78 43.10L14.70 43.01L14.77 43.09Q15.88 42.98 18.17 42.83L18.04 42.70L18.15 42.81Q21.78 37.42 24.53 28.02L24.41 27.90L24.40 27.90Q27.22 36.73 30.19 40.69L30.14 40.63L30.26 40.76Q30.64 40.68 31.48 40.79L31.62 40.94L31.58 40.90Q32.48 41.99 33.54 43.05L33.42 42.92L33.42 42.93Q34.31 43.10 36.71 43.36Z"/><path d="M7 26 C54 42,77 27,137 27" stroke="#555" fill="none"/><path fill="#222" d="M71.16 41.04L71.19 41.07L71.09 40.97Q67.01 29.81 61.87 24.82L61.78 24.73L61.80 24.75Q63.20 25.32 66.17 25.97L66.16 25.95L66.14 25.94Q69.82 30.00 72.37 36.66L72.34 36.63L72.29 36.58Q74.90 29.17 77.52 26.12L77.52 26.12L77.55 26.15Q79.47 25.98 81.91 25.30L82.07 25.45L81.97 25.35Q78.85 28.14 76.68 32.71L76.74 32.76L76.66 32.69Q76.36 33.41 72.97 41.02L72.93 40.99L72.93 40.99Q72.28 41.02 71.06 40.94ZM75.79 43.47L75.84 43.51L75.81 43.49Q79.09 31.12 83.66 26.43L83.59 26.37L82.17 26.92L82.11 26.87Q81.46 27.24 80.62 27.35L80.48 27.22L80.57 27.31Q81.00 26.86 81.82 25.98L81.86 26.03L81.74 25.91Q82.68 25.15 83.14 24.73L83.16 24.75L83.15 24.75Q80.86 25.32 77.44 25.81L77.40 25.78L77.40 25.77Q74.68 28.95 72.62 34.55L72.78 34.70L72.75 34.67Q71.07 30.45 69.24 27.97L69.24 27.97L68.61 27.87L68.65 27.91Q68.38 27.91 68.15 27.91L68.22 27.97L68.20 27.96Q67.99 27.63 66.28 25.58L66.21 25.51L66.35 25.65Q62.91 25.06 60.66 23.92L60.75 24.01L60.61 23.87Q66.79 29.63 70.79 41.36L70.81 41.38L71.83 41.41L71.81 41.39Q72.14 42.02 72.97 43.31L73.08 43.42L74.30 43.27L74.33 43.30Q75.07 43.32 75.72 43.39Z"/><path d="M7 26 C75 14,89 47,148 3" stroke="#777" fill="none"/><path fill="#333" d="M45.36 39.93L45.34 39.91L45.42 39.99Q41.17 39.35 39.34 37.90L39.25 37.82L39.31 37.88Q37.52 36.47 37.10 33.46L37.08 33.44L37.11 33.47Q37.01 33.03 36.67 28.27L36.72 28.32L36.80 28.40Q36.78 27.16 36.71 25.91L36.65 25.85L36.80 26.00Q36.43 20.76 38.64 19.00L38.66 19.03L38.77 19.13Q41.30 16.91 49.06 16.22L49.22 16.38L49.20 16.36Q50.48 16.16 52.12 16.19L52.12 16.19L52.14 16.21Q52.04 16.12 55.01 16.12L55.11 16.22L55.20 16.30Q55.90 16.16 57.61 16.31L57.58 16.29L57.55 16.26Q57.19 17.34 56.16 20.43L56.13 20.40L56.13 20.40Q53.98 19.12 50.97 19.12L50.98 19.13L50.97 19.12Q50.34 19.25 49.54 19.33L49.51 19.30L49.42 19.20Q44.27 19.61 41.76 21.59L41.89 21.73L41.78 21.62Q39.91 23.37 39.76 26.72L39.65 26.61L39.63 26.59Q39.68 27.28 39.72 28.54L39.62 28.44L39.63 28.45Q39.72 33.26 42.12 35.36L42.22 35.46L42.26 35.49Q44.32 37.33 49.31 37.63L49.33 37.66L49.32 37.65Q52.40 37.76 55.41 35.97L55.50 36.06L55.39 35.95Q56.10 38.79 56.70 40.16L56.79 40.25L56.63 40.08Q54.67 40.49 53.04 40.45L53.03 40.44L53.03 40.44Q48.51 40.33 45.39 39.95ZM60.48 43.66L60.48 43.67L60.46 43.64Q58.77 40.74 58.08 38.15L58.02 38.09L58.09 38.15Q57.67 38.42 56.68 38.80L56.67 38.79L56.61 38.73Q56.30 37.96 56.11 37.13L56.06 37.07L55.68 35.37L55.70 35.39Q52.38 37.39 49.26 37.28L49.32 37.34L49.26 37.29Q45.03 37.13 42.71 35.38L42.64 35.30L42.65 35.31Q41.45 33.43 41.53 30.50L41.66 30.64L41.63 30.60Q41.81 26.13 44.28 24.00L44.16 23.88L44.21 23.93Q46.35 22.04 51.03 21.43L51.10 21.49L51.13 21.52Q51.87 21.35 52.59 21.35L52.56 21.31L52.62 21.38Q55.34 21.32 57.43 22.84L57.48 22.89L57.45 22.86Q57.89 20.67 59.11 17.43L59.23 17.56L59.14 17.47Q58.92 17.51 58.36 17.45L58.42 17.50L58.42 17.51Q57.83 17.41 57.56 17.41L57.61 17.46L57.53 17.38Q57.81 16.94 58.27 15.95L58.27 15.95L58.24 15.92Q57.99 15.90 55.49 15.82L55.46 15.78L55.53 15.85Q53.05 15.80 52.41 15.83L52.26 15.69L52.41 15.84Q41.83 16.10 38.36 18.69L38.29 18.62L38.33 18.66Q36.25 20.42 36.25 24.34L36.41 24.51L36.42 24.52Q36.32 25.52 36.44 28.22L36.49 28.28L36.46 28.25Q36.52 31.74 36.75 33.45L36.87 33.57L36.78 33.48Q37.11 36.55 38.71 38.07L38.82 38.19L38.71 38.08Q39.29 38.85 40.55 39.99L40.59 40.03L40.56 40.00Q43.83 41.79 49.09 42.55L49.10 42.56L49.06 42.52Q55.43 43.41 60.42 43.60Z"/></svg>